<svg xmlns="http://www.w3.org/2000/svg" id="Capa_2" viewBox="0 0 148.06 118.55"><defs><style>.cls-1{fill:none;stroke:#0f2f47;stroke-miterlimit:10;stroke-width:2.62px;}.cls-2{fill:#efd459;}</style></defs><g id="Capa_1-2"><path class="cls-2" d="M113.33,95.13c-3.99,3.41-10.56,8.44-19.55,12.81-7.99,3.89-39.32,19.13-66.64,4.13-3.41-1.87-15.48-8.72-22.03-23.28-7.04-15.65-3.74-31.38-.55-39.67C17.22,16.13,68.29-4.5,101.49,13.58c2.11,1.15,26.99,15.22,29.33,41.88,1,11.4-2.51,20.65-4.96,25.76,5.52,5.94,12.64,13.11,18.71,19.47,1.46,1.53.29,4.07-1.83,3.93-3.92-.27-8.91-1.05-13.44-2.04-7.74-1.69-13.16-5.27-15.97-7.44Z"></path><path class="cls-1" d="M114.6,90.23c-4.02,3.43-10.64,8.5-19.71,12.91-8.05,3.92-39.63,19.27-67.17,4.16-3.44-1.89-15.6-8.78-22.2-23.45-7.1-15.77-3.77-31.61-.56-39.97C17.73,10.65,69.2-10.13,102.67,8.08c2.13,1.16,27.2,15.33,29.56,42.19,1.01,11.48-2.53,20.8-5,25.95,5.56,5.98,12.74,13.21,18.86,19.61,1.47,1.54.29,4.1-1.84,3.96-3.95-.27-8.98-1.06-13.55-2.06-7.8-1.7-13.26-5.31-16.1-7.49Z"></path></g></svg>