<?xml version="1.0" encoding="UTF-8"?><svg id="Capa_2" xmlns="http://www.w3.org/2000/svg" viewBox="0 0 40.74 37.81"><defs><style>.cls-1{fill:#9f163b;}</style></defs><g id="Capa_1-2"><path class="cls-1" d="M28.25,5.42c.2,2.25.38,4.21.56,6.18.03.33.12.65.14.98.04,1.1-.48,1.84-1.35,1.98-.86.14-1.57-.4-1.91-1.46-.1-.31-.19-.64-.22-.97-.24-3.03-.55-6.05-.67-9.08-.09-2.27,1.24-3.35,3.48-3,.76.12,1.52.3,2.25.53,2.63.83,5.25,1.68,7.87,2.54.52.17,1.05.37,1.5.67.75.49,1.01,1.32.73,2.01-.28.68-1.04,1.08-1.94.89-.81-.17-1.59-.45-2.39-.68-.68-.2-1.35-.4-2.36-.71.35.57.5.88.71,1.14,4.8,5.98,5.36,12.56,2.51,19.46-2.85,6.9-8.06,10.89-15.54,11.75-8.32.96-16.11-3.07-19.58-10.14C-2.74,17.77,1.37,7.36,9.31,2.27c.69-.44,1.45-.81,2.23-1.06.55-.18,1.23-.26,1.77-.1.52.15,1.11.58,1.34,1.04.31.64-.31,1.1-.81,1.45-.36.25-.77.43-1.16.62C4.1,8.24.76,19.11,5.72,27.17c3.04,4.94,7.71,7.11,13.37,7.24,10.59.24,18.62-9.94,15.93-20.1-.94-3.54-3.46-6.96-6.76-8.88Z"/></g></svg>