<?xml version="1.0" encoding="UTF-8"?><svg id="Capa_2" xmlns="http://www.w3.org/2000/svg" viewBox="0 0 49.52 35.5"><defs><style>.cls-1{fillcurrentColor;}</style></defs><g id="Capa_1-2"><path class="cls-1" d="M23.39,16.33c-1.14.38-2.29.71-3.41,1.15-6.39,2.53-11.7,6.59-16.37,11.56-.38.4-.76.81-1.2,1.13-.59.43-1.25.45-1.84-.03-.59-.47-.69-1.13-.44-1.8.15-.4.38-.8.67-1.13,5.82-6.5,12.68-11.46,21.14-13.93,1.46-.43,3.03-.51,4.56-.66.68-.06,1.27-.13,1.82-.61,3.66-3.2,7.8-5.57,12.37-7.21.15-.05.28-.15.61-.33-.4-.14-.65-.26-.92-.32-.32-.07-.66-.09-.98-.12-1.92-.22-3.84-.43-5.75-.68-.54-.07-1.09-.21-1.58-.44-.66-.31-.96-.91-.84-1.64.13-.75.64-1.16,1.36-1.24.49-.05.99-.03,1.49.02,4.06.45,8.11.92,12.17,1.38.11.01.22.04.33.06,2.86.53,3.51,1.74,2.49,4.44-1.23,3.25-2.41,6.52-3.62,9.78-.17.46-.34.95-.6,1.35-.39.59-.96.95-1.7.73-.71-.21-1.15-.78-1.14-1.47.01-.75.19-1.53.43-2.25.73-2.19,1.53-4.37,2.31-6.57-2.86-.25-11.06,3.85-13.58,6.79,1.92,2.51,1.53,5.25.53,7.99-1.37,3.77-3.37,7.2-6.02,10.21-.82.94-1.83,1.79-2.9,2.41-2.15,1.25-4.31.46-5.33-1.82-.78-1.75-.68-3.55-.2-5.35.81-3.04,2.43-5.67,4.21-8.21.69-.98,1.44-1.93,2.16-2.89-.07-.11-.15-.22-.22-.32ZM28.68,16.45c-.53.44-.76.58-.94.78-2.45,2.57-4.57,5.38-6.12,8.58-.48.99-.88,2.03-1.16,3.09-.26.99-.43,2.06.31,2.99.19-.01.38.03.51-.04.29-.15.6-.31.82-.54,3.32-3.36,5.65-7.3,6.86-11.88.1-.37.14-.77.1-1.15-.05-.52-.21-1.03-.39-1.84Z"/></g></svg>