<?xml version="1.0" encoding="UTF-8"?><svg id="Capa_2" xmlns="http://www.w3.org/2000/svg" viewBox="0 0 66.03 61.28"><defs><style>.cls-1{fill:#9f163b;}</style></defs><g id="Capa_1-2"><g id="Line-Arrow-12"><path id="Path" class="cls-1" d="M58.31,35.83c1.73-1.71,2.93-2.94,4.17-4.13.53-.51,1.07-1.11,1.72-1.35.48-.18,1.38-.03,1.68.32.28.33.1,1.14-.04,1.7-.08.31-.48.54-.74.81-2.25,2.32-4.5,4.64-6.75,6.96-1.24,1.27-2.08,1.45-3.32.24-2.51-2.45-4.89-5.04-7.23-7.66-.37-.41-.49-1.49-.21-1.93.56-.89,1.48-.56,2.13.07.99.97,1.9,2.02,2.85,3.02.67.7,1.35,1.38,2.39,2.43.51-3.08.44-6.23-.2-9.29-1.51-8.07-5.37-14.72-12.16-19.47C32.83.71,20.13,1.85,11.65,10.25-1.83,23.6,1.02,47.82,17.22,57.69c.63.38,1.37.69,1.81,1.24.32.4.48,1.29.25,1.68-.24.41-1.11.76-1.58.64-.87-.21-1.7-.71-2.47-1.21C6.6,54.49,1.86,46.44.39,36.42c-1.12-7.65.17-14.96,4.04-21.67C9.14,6.6,16.08,1.48,25.55.23c7.23-.95,13.8,1.01,19.55,5.35,8.86,6.7,12.96,15.87,13.21,26.86.02.88,0,1.77,0,3.38Z"/></g></g></svg>