<?xml version="1.0" encoding="UTF-8"?><svg id="Capa_2" xmlns="http://www.w3.org/2000/svg" viewBox="0 0 21.46 35.5"><defs><style>.cls-1{fill:#9f163b;}</style></defs><g id="Capa_1-2"><path class="cls-1" d="M13.23,7.45c-.45.27-.91.52-1.35.8-1.69,1.05-3.36,2.12-5.06,3.15-.46.28-.99.5-1.52.62-.71.17-1.34-.07-1.69-.73-.34-.65-.24-1.3.25-1.84.25-.28.57-.52.89-.73C8.8,6.13,12.85,3.56,16.9.98c.46-.29.94-.6,1.44-.8,1.33-.52,2.45.07,2.77,1.46.12.53.14,1.09.15,1.64.06,2.76.12,5.52.16,8.28,0,.49.09,1.07-.12,1.46-.26.48-.73.97-1.23,1.17-.62.25-1.21-.18-1.49-.76-.26-.53-.42-1.14-.49-1.72-.14-1.25-.19-2.52-.29-4.04-.41.44-.69.66-.88.95-4.3,6.5-8.25,13.2-11.61,20.22-.76,1.59-1.31,3.27-1.95,4.91-.08.21-.12.43-.21.63-.39.86-1.03,1.24-1.82,1.1-.74-.13-1.37-.81-1.33-1.67.03-.7.18-1.44.45-2.08.93-2.24,1.78-4.53,2.95-6.65,2.99-5.41,6.13-10.73,9.21-16.08.26-.46.53-.91.8-1.36-.06-.06-.12-.12-.18-.18Z"/></g></svg>