<?xml version="1.0" encoding="UTF-8"?><svg id="Capa_2" xmlns="http://www.w3.org/2000/svg" viewBox="0 0 22.2 85.38"><defs><style>.cls-1{fill:#9f163b;}</style></defs><g id="Capa_1-2"><g id="Line-Arrow-8"><path id="Path" class="cls-1" d="M11.93,7.74c-.75,7.19-1.42,14.4-2.25,21.58-1.3,11.16-2.7,22.31-4.06,33.46-.8,6.57-1.6,13.14-2.43,19.7-.15,1.16.16,2.74-1.66,2.88-1.17.09-1.72-1-1.46-3.26,1.2-10.43,2.45-20.86,3.7-31.29,1.64-13.66,3.28-27.32,4.93-40.97.07-.59.06-1.18.11-2.46-.95,1.04-1.54,1.56-1.97,2.18-1.38,1.98-2.67,4.03-4.1,5.97-.29.4-1.27.79-1.55.6-.51-.33-1.03-1.12-1-1.68.05-.77.54-1.57.99-2.25,2.32-3.5,4.65-6.99,7.06-10.43,1.59-2.27,2.84-2.42,4.34-.12,3.2,4.93,6.13,10.03,9.16,15.07.52.86.8,1.88-.23,2.5-1.18.71-1.97-.11-2.55-1.07-1.73-2.88-3.43-5.78-5.16-8.66-.41-.69-.9-1.33-1.35-1.99l-.52.23Z"/></g></g></svg>