<?xml version="1.0" encoding="UTF-8"?><svg id="Capa_2" xmlns="http://www.w3.org/2000/svg" viewBox="0 0 46.6 32.79"><defs><style>.cls-1{fill:#9f163b;}</style></defs><g id="Capa_1-2"><path class="cls-1" d="M46.56,17.4c-.35-2.9-.61-5.82-.99-8.72-.2-1.53-.43-3.07-.89-4.53-.62-1.96-2.39-2.31-3.66-.72-2.33,2.94-4.55,5.97-6.77,8.99-.34.46-.54,1.11-.57,1.69-.06,1.24,1.1,1.9,2.16,1.25.5-.31.89-.81,1.27-1.27.69-.84,1.34-1.71,2.01-2.57.1.05.2.1.3.15-.17.55-.32,1.11-.51,1.66-1.81,5.09-3.61,10.19-5.45,15.27-.53,1.47-.68,2.86.21,4.19,1.62-.4,2.44-1.54,2.97-3.03,1.72-4.89,3.49-9.76,5.25-14.64.15-.41.35-.8.53-1.2.43,1.29.58,2.49.71,3.69.15,1.39.64,2.57,2.1,3.22,1.15-.92,1.48-2.06,1.32-3.42Z"/><path class="cls-1" d="M25.03,1.97c-.48-.59-1.05-1.15-1.69-1.56-1.1-.72-2.29-.46-3.07.58-.29.39-.54.85-.7,1.31-1.18,3.38-2.35,6.77-3.48,10.17-.19.56-.25,1.19-.24,1.79,0,.72.41,1.26,1.14,1.44.73.18,1.32-.11,1.7-.73.25-.42.4-.9.56-1.37.66-1.99,1.29-3.99,1.95-5.98.17-.5.39-.99.59-1.48.11.02.21.05.32.07.04.55.09,1.09.11,1.64.21,6.45.42,12.91.6,19.36.04,1.4.31,2.61,1.65,3.36,1.22-.63,1.73-1.65,1.72-2.97,0-1.38.01-2.76-.03-4.14-.13-4.47-.3-8.94-.43-13.4-.01-.41.06-.81.12-1.59,1.57,1.79,2.61,3.84,5.11,3.66.39-1.52-.05-2.86-1.07-4.1-1.65-2-3.23-4.06-4.87-6.07Z"/><path class="cls-1" d="M8.17,14.19c-.21-.42-.41-.85-.61-1.27,1.85.46,3.36,1.93,5.23.51-.24-1.68-.43-2.08-1.76-2.82-1.87-1.05-3.8-2.01-5.71-2.98-.44-.22-.91-.4-1.39-.51-2.11-.51-3.53.45-3.64,2.62C.11,13.03.05,16.34,0,19.65c-.02,1.43.65,2.27,1.62,2.31.99.05,1.62-.71,1.71-2.2.1-1.71.13-3.42.21-5.12.02-.33.12-.66.24-1.28.44.75.73,1.21.98,1.69,2.29,4.46,4.6,8.91,6.82,13.4.79,1.6,1.94,2.69,3.48,3.43.72-2.11.14-3.95-.81-5.77-2.06-3.96-4.07-7.95-6.09-11.92Z"/></g></svg>