<?xml version="1.0" encoding="UTF-8"?><svg id="Capa_2" xmlns="http://www.w3.org/2000/svg" viewBox="0 0 107.32 21.65"><defs><style>.cls-1{fill:#9f163b;}</style></defs><g id="Capa_1-2"><g id="Line-Arrow-5"><path id="Path" class="cls-1" d="M101.66,10.37c-3.02.27-5.56.53-8.09.71-7.77.56-15.54,1.27-23.33,1.61-19.85.86-39.7,1.55-59.55,2.32-2.6.1-5.19.27-7.79.4-.56.03-1.17.2-1.65,0C.73,15.23.02,14.7,0,14.3c-.02-.46.54-1.13,1.03-1.39.53-.28,1.26-.24,1.9-.27,8.72-.41,17.43-.87,26.15-1.21,11.5-.45,23.02-.63,34.51-1.23,12.32-.64,24.62-1.63,37.63-2.52-.99-.77-1.39-1.21-1.89-1.44-2.61-1.19-5.24-2.36-7.89-3.47-.84-.35-1.63-.67-1.29-1.74.3-.96,1.14-1.17,2.04-.93.81.2,1.6.47,2.37.8,3.62,1.67,7.25,3.33,10.83,5.1,2.27,1.12,2.55,2.26.83,4.07-3.51,3.7-7.18,7.26-10.79,10.87-.26.26-.57.6-.89.64-.58.08-1.34.18-1.74-.12-.73-.54-.47-1.33.09-1.94.44-.48.95-.89,1.4-1.35,2.09-2.11,4.18-4.22,6.27-6.34.3-.31.53-.68,1.11-1.45Z"/></g></g></svg>