<?xml version="1.0" encoding="UTF-8"?><svg id="Capa_2" xmlns="http://www.w3.org/2000/svg" viewBox="0 0 17.7 38.81"><defs><style>.cls-1{fill:#9f163b;}</style></defs><g id="Capa_1-2"><g id="Line-Arrow-10"><path id="Path" class="cls-1" d="M7.82,6.34c-1.03.9-2.04,1.82-3.08,2.71-.73.63-1.59,1.02-2.38.2-.82-.84-.35-1.69.34-2.34C4.95,4.8,7.19,2.69,9.53.68c1.19-1.02,2.31-.9,3.02.4,1.81,3.31,3.48,6.7,5.09,10.12.2.43-.14,1.5-.54,1.73-.42.24-1.37,0-1.81-.36-.58-.48-.92-1.27-1.32-1.96-.63-1.09-1.22-2.2-2.06-3.73-.44,1.12-.76,1.8-.97,2.51-2.65,9.17-5.29,18.35-7.91,27.52-.28,1-.42,2.13-1.78,1.86-1.23-.24-1.34-1.34-1.2-2.38.12-.68.29-1.36.51-2.02,2.37-8.42,4.75-16.84,7.12-25.27.23-.82.37-1.67.56-2.51l-.42-.26Z"/></g></g></svg>