<?xml version="1.0" encoding="UTF-8"?><svg id="Capa_2" xmlns="http://www.w3.org/2000/svg" viewBox="0 0 32.53 50.02"><defs><style>.cls-1{fill:#9f163b;}</style></defs><g id="Capa_1-2"><g id="Line-Arrow-16"><path id="Path" class="cls-1" d="M25.91,2.88c.87,1.32,1.34,2.03,1.81,2.74,11.32,17.33,1.7,39.95-18.65,43.78-2.33.44-4.74.47-7.11.62C.91,50.08,0,49.67,0,48.44c0-1.27,1.02-1.43,2.02-1.54,2.74-.32,5.56-.33,8.21-1.03,17.16-4.51,24.56-23.84,14.82-38.53-.51-.78-1.13-1.48-1.96-2.56-.28,1.08-.49,1.77-.64,2.47-.16.75-.22,1.51-.39,2.25-.2.93-.74,1.76-1.74,1.38-.49-.18-.98-1.19-.93-1.78.19-2.28.51-4.55.93-6.8.21-1.29,1.33-2.24,2.64-2.23,2.38-.1,4.78-.11,7.16.03.57.03,1.44.71,1.57,1.24.24,1.04-.62,1.5-1.58,1.53-1.22.04-2.43.01-4.19.01Z"/></g></g></svg>