<?xml version="1.0" encoding="UTF-8"?><svg id="Capa_2" xmlns="http://www.w3.org/2000/svg" viewBox="0 0 40.72 35.89"><defs><style>.cls-1{fill:currentColor;}</style></defs><g id="Capa_1-2"><path class="cls-1" d="M19.38,7.05c.28-.18.61-.27,1.21-.53-.81,1.34-1.46,2.36-2.07,3.41-.66,1.14-.91,2.33-.4,3.68,1.25.03,2.23-.52,2.84-1.46,1.65-2.54,3.32-5.09,4.74-7.76,1.16-2.18.11-3.81-2.39-3.97-2.75-.19-5.51-.28-8.27-.37-1.27-.04-2.54-.06-3.81,0-1.24.06-2.01.84-1.96,1.8.06.91.77,1.48,2.02,1.51,1.65.04,3.31.03,4.97.06.53,0,1.05.08,1.58.12.02.1.04.2.07.3-.38.29-.75.59-1.13.87C8.64,10.65,3.54,18.75.24,28.12c-.14.41-.22.86-.24,1.29-.04,1.02.46,1.7,1.29,1.85.78.15,1.42-.23,1.83-1.09.09-.2.15-.41.22-.62,1.75-5.67,4.68-10.7,8.31-15.34,2.19-2.8,4.75-5.23,7.74-7.16Z"/><path class="cls-1" d="M39.82,16.13c-.39-.3-.83-.56-1.28-.76-3.12-1.38-6.26-2.75-9.39-4.11-.25-.11-.52-.2-.79-.25-.97-.16-1.75.24-2.03,1.01-.26.71.02,1.47.83,1.96.51.31,1.09.53,1.65.76,1.46.62,2.93,1.22,4.39,1.83-.02.11-.03.21-.05.32-.2.08-.4.18-.61.23-5.36,1.17-10.13,3.69-14.76,6.51-3.61,2.2-6.74,4.98-9.39,8.28-.44.55-.83,1.17-1.12,1.82-.32.73-.13,1.44.55,1.9.68.46,1.38.32,1.98-.19.29-.25.54-.55.78-.85,5.59-7.06,13.1-11.16,21.5-13.87.58-.19,1.2-.26,1.8-.39-.25.68-.61,1.09-.97,1.48-1.01,1.1-2.06,2.15-3.01,3.3-.82.99-1.33,2.11-.9,3.44,1.68.16,2.81-.68,3.84-1.74,2.27-2.33,4.54-4.66,6.81-7,.23-.24.46-.48.64-.75.72-1.08.57-2.11-.45-2.91Z"/></g></svg>