<?xml version="1.0" encoding="UTF-8"?><svg id="Capa_2" xmlns="http://www.w3.org/2000/svg" viewBox="0 0 33.41 32.47"><defs><style>.cls-1{fill:#9f163b;}</style></defs><g id="Capa_1-2"><path class="cls-1" d="M.14,29c.57-.12,1.14-.36,1.71-.34,2.14.07,4.3.1,6.43.39,4.01.54,7.04-.99,9.26-4.18,1.28-1.85,2.49-3.8,3.4-5.85,1.61-3.63,2.97-7.37,4.42-11.06.15-.39.24-.81.43-1.47-.58.3-.91.45-1.22.64-1.4.88-2.79,1.78-4.19,2.66-.42.26-.85.52-1.31.7-1.03.43-1.89.2-2.32-.57-.42-.75-.16-1.58.74-2.29.22-.17.46-.3.69-.46,2.99-1.98,5.97-3.97,8.97-5.94.6-.39,1.19-.83,1.85-1.07,1.32-.49,2.44.16,2.77,1.53.12.48.1.99.17,1.48.42,2.78.87,5.55,1.29,8.33.1.65.28,1.33.16,1.95-.09.45-.55,1.03-.97,1.17-.42.13-1.14-.08-1.47-.4-.44-.44-.73-1.1-.91-1.71-.38-1.26-.65-2.56-1.03-4.15-.3.61-.5.97-.65,1.35-1.3,3.28-2.55,6.58-3.89,9.85-1.22,2.97-2.76,5.78-4.88,8.22-2.16,2.49-4.69,4.46-8.11,4.64-3.43.18-6.85,0-9.95-1.77-.54-.31-1-.77-1.5-1.16.04-.16.09-.32.14-.47Z"/></g></svg>