<?xml version="1.0" encoding="UTF-8"?><svg id="Capa_2" xmlns="http://www.w3.org/2000/svg" viewBox="0 0 31.64 36.55"><defs><style>.cls-1{fill:#9f163b;}</style></defs><g id="Capa_1-2"><path class="cls-1" d="M19.64,6.18c-.17,2.05-.31,3.85-.47,5.65-.04.44-.05.9-.2,1.3-.26.74-.8,1.21-1.62,1.16-.82-.05-1.32-.57-1.48-1.34-.1-.48-.08-.99-.05-1.48.19-2.7.39-5.4.6-8.09.03-.44.09-.88.21-1.3.46-1.53,1.54-2.24,3.13-2.05.43.05.87.16,1.27.34,2.96,1.35,5.92,2.71,8.86,4.11.49.23.94.59,1.31.98.43.46.61,1.06.27,1.68-.36.65-.96.96-1.66.82-.64-.13-1.25-.41-1.85-.69-1.44-.67-2.85-1.37-4.65-2.24.32.87.48,1.37.67,1.85,1.88,4.66,2.9,9.49,2.72,14.54-.13,3.66-1.04,7.1-3.24,10.09-2.48,3.38-5.77,5.24-10.05,5.03-2.34-.11-4.41-.99-6.23-2.41C3.12,30.97.96,26.72.25,21.72c-.72-5.09.18-10.01,2.01-14.77.35-.91.92-1.76,1.48-2.57.3-.44.75-.82,1.21-1.1.81-.51,1.78-.37,2.27.22.48.57.42,1.32-.16,2.12-3.78,5.23-4.77,14.19-2.22,20.07.78,1.79,1.83,3.4,3.23,4.77,4.27,4.18,9.86,3.51,13.06-1.54,1.46-2.31,2.08-4.87,2.17-7.55.17-5.17-.95-10.08-3.18-14.74-.04-.09-.15-.14-.48-.44Z"/></g></svg>