<?xml version="1.0" encoding="UTF-8"?><svg id="Capa_2" xmlns="http://www.w3.org/2000/svg" viewBox="0 0 51.94 18.31"><defs><style>.cls-1{fill:#9f163b;}</style></defs><g id="Capa_1-2"><path class="cls-1" d="M43.25,10.04c-1.7.13-3.4.27-5.1.39-10.63.74-21.25,1.48-31.88,2.21-1.21.08-2.43.1-3.64.12-.44,0-.89,0-1.31-.11C.57,12.44.03,11.97,0,11.14c-.03-.84.48-1.32,1.22-1.57.31-.1.65-.12.98-.14,7.99-.47,15.98-.9,23.97-1.41,4.24-.27,8.47-.66,12.71-1,.42-.03.83-.17,1.26-.51-1.58-.46-3.15-.92-4.73-1.36-2.07-.58-4.15-1.12-6.22-1.7-.53-.15-1.06-.33-1.53-.61-.62-.37-.92-.97-.72-1.7C27.13.41,27.68.01,28.4,0c.6,0,1.22.07,1.79.23,6.48,1.8,12.96,3.62,19.44,5.44.37.1.75.22,1.08.4,1.41.75,1.64,2.14.51,3.28-.42.43-.94.77-1.45,1.09-3.96,2.41-7.92,4.82-11.91,7.18-.64.38-1.43.64-2.16.69-1.09.08-1.68-.78-1.18-1.75.36-.7.97-1.35,1.63-1.78,1.85-1.2,3.78-2.28,5.68-3.41.51-.31,1.01-.63,1.51-.95l-.1-.37Z"/></g></svg>