<?xml version="1.0" encoding="UTF-8"?><svg id="Capa_2" xmlns="http://www.w3.org/2000/svg" viewBox="0 0 59.5 56.74"><defs><style>.cls-1{fill:#9f163b;}</style></defs><g id="Capa_1-2"><g id="Line-Arrow-13"><path id="Path" class="cls-1" d="M11.91,50.72c-.11-1.66-.22-3.32-.34-4.98-.04-.55-.22-1.16-.04-1.64.16-.44.68-.99,1.1-1.04.41-.05,1.16.38,1.28.75.36,1.15.58,2.34.66,3.55.16,2.41.22,4.84.26,7.26.03,1.9-.64,2.5-2.35,1.91-3.78-1.3-7.51-2.76-11.25-4.15-.89-.33-1.49-.92-1.11-1.91.39-1,1.27-.96,2.13-.67,1.57.53,3.14,1.1,5.14,1.8-.29-.71-.38-1.1-.59-1.42C-3.15,34.69,2.34,14.96,17.68,5.72c12.85-7.74,25.92-7.61,38.8.27.78.5,1.53,1.06,2.24,1.67.71.59,1.08,1.38.5,2.21-.58.84-1.44.74-2.23.25-.63-.39-1.21-.87-1.82-1.3C38.7-2.52,14.98,4.05,7.27,22.21c-3.91,9.21-3.08,18.17,2.37,26.63.48.75,1.08,1.42,1.62,2.13l.65-.26Z"/></g></g></svg>