<?xml version="1.0" encoding="UTF-8"?><svg id="Capa_2" xmlns="http://www.w3.org/2000/svg" viewBox="0 0 37.42 20.17"><defs><style>.cls-1{fill:#9f163b;}</style></defs><g id="Capa_1-2"><path class="cls-1" d="M33.27,13.42c.25-1.79.49-3.58.77-5.36.08-.54.16-1.17.49-1.55.35-.4.97-.75,1.5-.78.71-.04,1.22.53,1.34,1.25.09.54.06,1.1,0,1.65-.37,3.01-.77,6.02-1.17,9.03-.28,2.09-1.25,2.83-3.28,2.4-3.35-.7-6.68-1.44-10.02-2.2-1.21-.27-1.8-1.03-1.63-1.92.17-.89,1.02-1.51,2.16-1.34,1.8.27,3.57.68,5.36,1.02.37.07.74.14,1.31.25-.24-.5-.35-.84-.54-1.13-1.3-1.98-2.53-4.02-3.96-5.91-1.02-1.35-2.24-2.59-3.51-3.72-2.24-1.98-4.76-2.2-7.34-.68-1.32.79-2.61,1.67-3.79,2.65-2.78,2.29-5.26,4.88-7.41,7.77-.26.35-.52.72-.85,1.01-.59.53-1.29.67-1.98.22-.68-.45-.87-1.14-.58-1.89.2-.51.46-1.01.79-1.44C4,8.64,7.56,5.04,11.83,2.21c.87-.58,1.82-1.05,2.78-1.45,2.85-1.18,5.67-1,8.2.76,1.57,1.09,3.07,2.38,4.29,3.84,1.69,2.02,3.09,4.29,4.61,6.46.4.58.77,1.17,1.16,1.76.13-.05.26-.1.4-.16Z"/></g></svg>