<?xml version="1.0" encoding="UTF-8"?><svg id="Capa_2" xmlns="http://www.w3.org/2000/svg" viewBox="0 0 122.24 28.9"><defs><style>.cls-1{fill:#9f163b;}</style></defs><g id="Capa_1-2"><g id="Line-Arrow-20"><path id="Path" class="cls-1" d="M115.56,8.62c-1.02-1.79-2.04-3.58-3.04-5.38-.33-.59-.71-1.21-.84-1.85-.03-.47.17-.92.54-1.22.42-.21.91-.23,1.35-.05.44.22.8.57,1.02,1,2.49,4.57,4.94,9.17,7.4,13.76.09.17.15.36.19.56.35,1.81-.83,3.06-2.66,2.87-4.39-.47-8.78-.88-13.16-1.42-.63-.08-1.6-.63-1.71-1.12-.23-1.08.73-1.55,1.67-1.56,2.56-.02,5.11.04,7.67.11.95.02,1.89.15,2.89,0-3.08-2.94-6.65-4.47-10.84-3.08-2.6.91-5.09,2.08-7.44,3.51-3.47,2.05-6.75,4.41-10.15,6.57-2.4,1.53-4.78,3.15-7.32,4.41-6.21,3.08-12.52,3.05-18.77.05-2.66-1.28-5.2-2.78-7.85-4.08-2.18-1.13-4.43-2.13-6.73-3-4.25-1.5-8.53-1.37-12.62.63-2.21,1.08-4.29,2.41-6.5,3.48-3.7,1.81-7.37,3.75-11.21,5.2-5.64,2.13-10.82.22-15.74-2.58-.68-.39-1.23-.98-1.58-1.68-.23-.51-.13-1.48.23-1.84.33-.33,1.23-.24,1.83-.11.43.1.74.64,1.16.88,4.52,2.55,9.22,4.1,14.33,1.87,3.15-1.37,6.21-2.94,9.28-4.5,2.19-1.11,4.28-2.41,6.48-3.51,5.22-2.61,10.61-2.83,16.01-.7,2.83,1.12,5.54,2.53,8.27,3.87,2.12,1.04,4.16,2.24,6.29,3.25,5.22,2.46,10.49,2.47,15.64-.12,2.36-1.19,4.58-2.68,6.82-4.1,3.82-2.42,7.54-5,11.42-7.33,5.39-3.24,11.01-5.39,17.36-2.2l.33-.56Z"/></g></g></svg>