<?xml version="1.0" encoding="UTF-8"?><svg id="Capa_2" xmlns="http://www.w3.org/2000/svg" viewBox="0 0 177.16 80.41"><defs><style>.cls-1{fill:#9f163b;}</style></defs><g id="Capa_1-2"><g id="Line-Arrow-7"><path id="Path" class="cls-1" d="M170.81,8.08c-1.88-1.24-3.36-2.25-4.86-3.22-.93-.6-1.89-1.16-2.83-1.75-.91-.57-1.75-1.22-.99-2.41.64-1,1.62-.77,2.4-.26,3.96,2.59,7.91,5.2,11.82,7.87.99.68,1.01,1.7.31,2.66-.48.65-1.02,1.25-1.55,1.86-2.33,2.64-4.66,5.28-7,7.92-.13.15-.23.33-.36.48-.6.65-1.41,1.15-2.06.39-.4-.47-.6-1.6-.31-2.09.86-1.46,1.98-2.78,3.05-4.12.86-1.07,1.79-2.09,2.5-3.36-4.81.85-8.8,3.1-11.52,7.16-1.56,2.33-2.78,4.91-3.94,7.47-2.06,4.6-3.76,9.36-5.99,13.88-1.83,3.69-3.96,7.23-6.37,10.57-1.37,1.9-3.37,3.49-5.36,4.79-4.75,3.1-9.71,2.45-13.73-1.56-2.63-2.62-4.23-5.87-5.31-9.37-1.63-5.25-2.18-10.64-2.07-16.12.01-.65-.08-1.31-.16-2.65-.83,1.43-1.39,2.25-1.79,3.13-3.39,7.43-6.76,14.86-10.11,22.3-2,4.41-3.81,8.91-6.05,13.18-1.58,3.01-3.61,5.81-5.69,8.52-1.53,2.03-3.63,3.56-6.03,4.4-4.59,1.61-8.62.32-11.36-3.7-2.42-3.54-3.14-7.62-3.41-11.76-.43-6.49.59-12.86,1.95-19.18.35-1.64.7-3.28.54-5.21-.74.74-1.58,1.41-2.21,2.24-4.25,5.62-8.56,11.21-12.65,16.95-3.04,4.27-5.72,8.79-8.67,13.11-1.47,2.17-3.1,4.23-4.86,6.16-1.15,1.26-2.5,2.32-4,3.15-3.09,1.69-6.07,1.02-7.81-2.05-1.19-2.21-2.03-4.58-2.49-7.05-1.19-5.9-.58-11.85.25-17.75.69-4.89,1.7-9.73,2.39-14.61.4-2.48.53-5,.41-7.51-.24-3.48-2.14-4.4-5.15-2.57-1.71,1.06-3.28,2.33-4.68,3.78-2.39,2.45-4.57,5.1-6.89,7.63-1.29,1.41-2.56,2.87-4.04,4.07-3.38,2.72-6.86,2.21-9.37-1.35-.94-1.31-1.68-2.75-2.21-4.27C-.37,29.3-.8,20.09,1.34,11.32c.41-1.55.99-3.06,1.72-4.5.41-.86,1.24-1.4,2.26-.87,1.11.58.68,1.43.35,2.33-3.64,9.79-3.21,19.59.44,29.23,2.01,5.31,4.14,5.59,7.97,1.47,2.81-3.02,5.37-6.3,8.3-9.2,1.97-2.01,4.21-3.73,6.66-5.11,4.41-2.4,8.39-.33,9.06,4.67.31,2.6.27,5.23-.11,7.81-.71,5.39-1.91,10.72-2.53,16.11-.5,4.6-.73,9.23-.68,13.85.02,2.27.6,4.62,1.38,6.77,1.32,3.6,3.3,4.05,6.15,1.55,1.44-1.26,2.73-2.68,3.85-4.24,2.74-3.86,5.26-7.88,7.98-11.76,4.51-6.43,9.06-12.84,13.7-19.18,1.3-1.78,2.93-3.32,4.48-4.9.7-.72,1.51-1.34,2.39-1.83,2.06-1.13,4.04-.04,3.92,2.29-.11,2.2-.6,4.39-1.06,6.55-1.26,5.82-2.34,11.66-2.26,17.64.05,3.54.36,7.04,1.9,10.32,2.45,5.25,6.76,6.38,11.2,2.63,1.86-1.55,3.44-3.39,4.7-5.45,2.19-3.73,4.18-7.58,5.96-11.53,3.76-8.25,7.31-16.6,11.03-24.87,1.07-2.39,2.37-4.67,3.62-6.98.57-1.06,1.24-2.07,1.91-3.08.75-1.13,1.68-2.19,3.19-1.76,1.59.46,1.59,1.93,1.55,3.25-.08,2.41-.35,4.83-.36,7.24-.02,5.57.33,11.13,2.71,16.27.98,2.2,2.29,4.24,3.88,6.04,2.65,2.9,5.91,3.11,9.31,1.1,2.55-1.47,4.68-3.57,6.18-6.1,2.09-3.55,3.99-7.22,5.73-10.96,2.13-4.56,4.01-9.24,6-13.87,3.02-7.04,8.24-11.54,15.62-13.57.47-.18.93-.39,1.38-.62Z"/></g></g></svg>