<?xml version="1.0" encoding="UTF-8"?><svg id="Capa_2" xmlns="http://www.w3.org/2000/svg" viewBox="0 0 65.16 59.81"><defs><style>.cls-1{fill:#9f163b;}</style></defs><g id="Capa_1-2"><path class="cls-1" d="M63.42,17.81c-.78.34-1.46.97-2.08,1.58-.74.72-1.36,1.55-2.21,2.54-.19-.75-.31-1.2-.41-1.66-.27-1.24-.42-2.51-.81-3.72-2.52-7.94-7.45-13.54-15.68-15.84-3.36-.94-6.78-.88-10.17-.2C18.76,3.16,11.52,10.45,8.17,23.59c-.32,1.25-.27,2.63-.15,3.93.1,1.11,1.04,1.74,1.95,1.61.87-.13,1.34-.77,1.28-1.99-.1-1.86.26-3.64.91-5.35.62-1.65,1.33-3.27,2.07-4.87,2.41-5.21,6.38-8.82,11.63-11,2.08-.86,4.27-1.5,6.46-2.03,2.48-.6,5.04-.74,7.56-.25,7.8,1.51,12.45,6.47,14.75,13.82.72,2.29,1,4.71,1.54,7.4-.69-.5-1.14-.8-1.57-1.14-1.56-1.23-3.1-2.49-4.66-3.71-1.12-.87-2.15-.93-2.8-.18-.71.8-.48,1.83.7,2.82.93.78,1.89,1.52,2.85,2.27,1,.79,1.97,1.61,3,2.35,2,1.44,3.51,1.34,5.38-.28.17-.14.34-.29.48-.46,1.56-1.79,3.14-3.56,4.64-5.4.44-.53.74-1.24.91-1.92.32-1.29-.44-1.97-1.67-1.43Z"/><path class="cls-1" d="M56.02,36.98c-.68-.16-1.42.24-1.83,1.11-.25.54-.41,1.14-.53,1.73-1.2,5.55-4.29,9.75-9.17,12.59-1.85,1.08-3.79,2.04-5.76,2.89-3.34,1.43-6.79,1.52-10.17.2-6.98-2.71-12.38-7.34-16.18-13.8-.43-.74-.69-1.57-1.2-2.77.93.36,1.49.52,2,.79,1.86.98,3.67,2.04,5.55,2.96.87.42,1.85.76,2.8.83,1.23.1,1.63-.63,1.02-1.68-.32-.56-.77-1.13-1.3-1.47-3.49-2.24-7.1-4.28-11.14-5.37-2.87-.77-4.37-.15-5.69,2.53-1.46,2.97-2.74,6.03-4.07,9.06-.2.45-.31.95-.35,1.43-.06.72.26,1.29.97,1.57.71.28,1.35.08,1.78-.48.36-.47.61-1.04.86-1.59,1.03-2.32,2.04-4.65,3.07-6.97.22-.49.5-.94.87-1.62.22.51.34.8.46,1.09.52,1.21.91,2.51,1.59,3.63,4.13,6.91,9.96,11.89,17.42,14.89,4.05,1.62,8.19,1.67,12.3.17,3.44-1.26,6.63-3,9.56-5.21,4.54-3.43,7.11-8.06,8.19-13.57.07-.38.15-.77.14-1.15-.03-.94-.52-1.65-1.18-1.81Z"/></g></svg>