<?xml version="1.0" encoding="UTF-8"?><svg id="Capa_2" xmlns="http://www.w3.org/2000/svg" viewBox="0 0 67.58 69.83"><defs><style>.cls-1{fill:#9f163b;}</style></defs><g id="Capa_1-2"><path class="cls-1" d="M55.6,55.3c-.64-.35-1.33-.24-1.84.26-.47.45-.86,1-1.22,1.55-4.61,7.18-11.16,10.24-19.6,9.17-7.25-.92-13.4-4.22-18.76-9.08-2.58-2.34-4.34-5.27-5.55-8.52-.27-.73-.67-1.49-.34-2.5,1.84,1,3.55,1.98,5.31,2.88,1.17.6,2.37,1.19,3.62,1.61.99.34,2.07.62,3.22.16-.83-1.85-2.22-3.01-3.81-3.92-2.54-1.45-5.11-2.84-7.7-4.19-.82-.43-1.73-.73-2.63-.93-1.1-.25-2.11.12-2.82,1-.44.55-.82,1.19-1.05,1.85-.77,2.3-1.48,4.62-2.17,6.94C.1,52.17,0,52.79,0,53.39c0,1.04.68,1.76,1.57,1.81.85.05,1.43-.42,1.72-1.45.09-.32.11-.65.2-.97.37-1.35.76-2.71,1.14-4.06.13.02.27.04.4.06.12.3.24.61.36.91,1.71,4.67,4.49,8.57,8.39,11.67,3,2.38,6.24,4.33,9.77,5.84,4.49,1.93,9.14,2.86,14.02,2.58,8.13-.46,13.95-4.59,18.09-11.38.25-.42.45-.89.56-1.37.16-.68.06-1.36-.62-1.73Z"/><path class="cls-1" d="M67.02,34.78c-.77-.46-1.51.04-2.06.6-.54.54-.97,1.2-1.44,1.8-.69.89-1.38,1.79-2.1,2.72-.22-.28-.33-.36-.33-.44-.03-.44-.05-.88-.06-1.32-.15-5.79-1.19-11.4-3.5-16.74-2.35-5.44-6.08-9.68-11.16-12.72-.61-.36-1.28-.66-1.96-.82-.7-.16-1.31.18-1.65.84-.34.66-.21,1.31.32,1.82.31.3.69.55,1.07.76,5.42,3.09,8.95,7.68,11.11,13.5,2.25,6.08,2.38,12.39,2.46,18.85-.33-.46-.61-.85-.9-1.24-1.35-1.81-2.68-3.64-4.08-5.42-.4-.5-.96-.93-1.53-1.21-.64-.32-1.31-.11-1.79.46-.42.51-.52,1.11-.18,1.7.22.38.52.71.79,1.06.95,1.22,1.94,2.41,2.85,3.65.85,1.15,1.57,2.41,2.45,3.53,1.4,1.78,3.16,2.02,4.66.37,2.41-2.64,4.6-5.49,6.85-8.27.3-.37.49-.88.6-1.35.16-.75.36-1.65-.42-2.12Z"/><path class="cls-1" d="M4.16,33.4c1.3-.34,1.88-1.14,2.26-2.07.32-.76.53-1.57.76-2.36,1.93-6.42,5.4-11.81,10.72-15.94,4.06-3.15,8.72-4.65,13.84-4.75.77-.01,1.64-.15,2.29.7-.47.34-.89.6-1.26.92-1.41,1.24-2.86,2.42-4.17,3.76-.84.87-1.44,1.96-.8,3.29,1.54.37,2.59-.46,3.54-1.39,1.79-1.75,3.67-3.34,5.97-4.39.15-.07.29-.16.43-.25,1.1-.81,1.27-1.95.42-3.01-.2-.26-.45-.49-.71-.69-2.93-2.25-5.86-4.5-8.79-6.74-.17-.13-.37-.24-.57-.32-.67-.28-1.32-.22-1.82.33-.55.6-.59,1.32-.14,1.98.3.45.73.82,1.13,1.19.44.4.92.75,1.64,1.32-.89.19-1.43.32-1.97.42-4.5.82-8.49,2.74-11.98,5.66-5.73,4.79-9.42,10.88-11.31,18.08-.19.73-.24,1.54-.16,2.29.07.66.43,1.29.67,1.96Z"/></g></svg>