<?xml version="1.0" encoding="UTF-8"?><svg id="Capa_2" xmlns="http://www.w3.org/2000/svg" viewBox="0 0 92.61 47.31"><defs><style>.cls-1{fill:#9f163b;}</style></defs><g id="Capa_1-2"><g id="Line-Arrow-15"><path id="Path" class="cls-1" d="M85.78,10.49c-.98-.15-1.49-.3-2-.3-17.36.05-34.3,2.42-50.44,9.14-8.49,3.54-16.28,8.19-22.73,14.88-3.1,3.16-5.57,6.89-7.29,10.97-.76,1.83-1.58,2.43-2.52,2-.94-.43-1.08-1.42-.33-3.25,2.46-6.06,6.47-10.97,11.37-15.22,9.6-8.32,21-13.06,33.03-16.48,12.38-3.52,25.04-5.06,37.89-5.16,1.07.04,2.13-.13,3.13-.5-1.44-.99-2.87-1.98-4.31-2.97-.47-.32-.94-.63-1.41-.94-.71-.47-1.08-1.11-.64-1.91.52-.93,1.35-.91,2.19-.46.66.36,1.29.76,1.92,1.17,2.29,1.48,4.57,2.97,6.85,4.46,2.76,1.81,2.83,3.36.14,5.06-2.62,1.66-5.31,3.21-7.98,4.79-.4.24-.87.62-1.26.57-.65-.09-1.26-.47-1.89-.73.23-.56.31-1.34.73-1.63,1.22-.86,2.59-1.52,3.88-2.28.45-.27.85-.63,1.66-1.23Z"/></g></g></svg>