<?xml version="1.0" encoding="UTF-8"?><svg id="Capa_2" xmlns="http://www.w3.org/2000/svg" viewBox="0 0 76.27 20.85"><defs><style>.cls-1{fill:#9f163b;}</style></defs><g id="Capa_1-2"><path class="cls-1" d="M70.31,9.47c-.44-.86-.85-1.73-1.32-2.58-.61-1.11-1.26-2.21-1.88-3.31-.22-.38-.46-.76-.61-1.17-.35-.95-.1-1.79.6-2.19.72-.42,1.54-.22,2.2.55.18.21.32.45.47.68,2.24,3.69,4.2,7.52,5.8,11.52.25.61.44,1.25.59,1.9.36,1.6-.22,2.63-1.82,2.93-1.51.28-3.06.39-4.6.53-2.31.21-4.62.4-6.93.57-1.3.1-2.55,0-3.29-1.38.37-1.16,1.26-1.68,2.35-1.82,1.86-.25,3.73-.4,5.59-.59,1.41-.14,2.83-.26,4.61-.42-.54-.37-.77-.57-1.03-.7-6.1-3.08-12.48-5.32-19.25-6.35-4.06-.62-8.15-.55-12.23-.13-6.82.71-13.56,1.84-20.1,3.98-3.51,1.15-7,2.4-10.16,4.39-.55.35-1.07.73-1.91,1.29.7.11,1.04.2,1.39.21,1.55.04,3.09.04,4.64.1.66.03,1.33.11,1.96.29.71.2,1.32.62,1.38,1.46.05.65-.6,1.25-1.55,1.49-.27.07-.55.13-.82.12-3.86-.13-7.72-.27-11.58-.43-.32-.01-.66-.1-.97-.21-1.44-.51-2.09-1.6-1.78-3.11.15-.75.41-1.49.71-2.2.84-2.04,1.71-4.07,2.58-6.1.06-.15.13-.3.21-.45.77-1.51,1.66-2.04,2.65-1.54.96.48,1.09,1.48.38,3.07-.54,1.21-1.11,2.41-1.64,3.62-.17.38-.28.79-.46,1.31.33-.09.5-.09.61-.18,4.92-3.66,10.59-5.67,16.41-7.27,7.63-2.1,15.42-3.33,23.35-3.52,8.29-.19,16.04,2.03,23.59,5.17.54.22,1.08.44,1.63.66.08-.07.16-.13.24-.2Z"/></g></svg>