<?xml version="1.0" encoding="UTF-8"?><svg id="Capa_2" xmlns="http://www.w3.org/2000/svg" viewBox="0 0 44.26 20.88"><defs><style>.cls-1{fill:currentColor;}</style></defs><g id="Capa_1-2"><path class="cls-1" d="M26.93,17.88c1.31-3.73,4.02-6.07,7.17-8.55-.69.05-.98.03-1.26.1-7.44,1.85-14.84,3.87-21.89,6.95-2.62,1.14-5.12,2.56-7.68,3.86-.15.07-.28.18-.43.26-1.17.62-2.12.49-2.62-.36-.47-.79-.24-1.69.79-2.41,1.18-.81,2.42-1.55,3.69-2.19,6.72-3.42,13.83-5.77,21.08-7.76,2.7-.74,5.42-1.42,8.49-2.23-.59-.26-.84-.42-1.11-.48-2.47-.56-4.95-1.1-7.43-1.66-.48-.11-.97-.24-1.41-.46-.58-.29-.9-.81-.84-1.49.06-.75.49-1.25,1.2-1.39.47-.09.99-.09,1.46.02,5.34,1.15,10.67,2.32,16,3.49.27.06.54.14.79.25,1.56.67,1.76,2.18.43,3.26-.21.17-.45.32-.69.45-3.38,1.91-6.41,4.3-9.35,6.82-1.86,1.59-3.89,2.84-6.41,3.53Z"/></g></svg>