<?xml version="1.0" encoding="UTF-8"?><svg id="Capa_2" xmlns="http://www.w3.org/2000/svg" viewBox="0 0 104.2 52"><defs><style>.cls-1{fill:#9f163b;}</style></defs><g id="Capa_1-2"><g id="Line-Arrow-6"><path id="Shape" class="cls-1" d="M.75.03c.38-.14,1.1.27,1.48.64.17.17.27.41.36.66l.11.34c.05.14.1.28.17.41,6.17,11.75,14.86,20.97,26.99,26.69,3.46,1.63,6.28,2.17,9.3,2.05l-.08-.25h0l-.22-.74c-.1-.32-.19-.64-.31-.94-1.95-5.31-1.45-10.56.73-15.63,2.34-5.43,7.92-7.51,13.38-5.22,7.97,3.34,10.06,12,4.47,18.58-2.76,3.25-6.31,5.24-10.36,6.42l-1.17.34c-.2.06-.39.11-.59.17-.03,0-.05.02-.08.05l-.04.03h0l-.1.09h0l-.07.06s-.03.02-.04.03c.07.29.18.56.33.81,6.68,8.47,15.22,13.75,26.11,14.38,11.75.69,22.03-7.77,23.98-19.28.61-3.62-.29-9.44-2.18-13.57l-1.27,2.66h0l-.36.75c-.04.08-.08.17-.12.25-.04.09-.09.19-.13.28l-.12.29h0l-.08.19c-.14.32-.3.62-.53.84-.38.35-1.16.64-1.54.47-.38-.17-.71-.97-.66-1.46.04-.41.21-.8.4-1.19l.16-.32c.07-.14.14-.28.2-.43l.42-1h0l.85-2.01c.56-1.34,1.13-2.67,1.72-4,.86-1.94,1.82-2.14,3.37-.73,2.59,2.37,5.16,4.75,7.73,7.13.05.05.11.1.17.15l.32.28.11.1h0l.07.07h0l.07.07s.05.05.07.07l.06.07c.39.43.59.93.06,1.55-.6.71-1.22.58-1.8.22l-.09-.06h0l-.09-.06h0l-.08-.06h0l-.08-.06h0l-.12-.1h0l-.08-.07h0l-.17-.14-.2-.17c-.84-.7-1.67-1.42-2.5-2.14l-1.24-1.08-.62-.54h0l-.46.16,1.17,5.07h0c3.75,16.15-8.93,28.44-20.9,30.4-6.6,1.08-12.75-.23-18.65-3-6.45-3.03-12.02-7.23-15.98-13.28-.63-.97-1.35-1.38-2.48-1.41h-.09c-5.41-.06-10.31-1.91-14.91-4.6C14.26,23.34,6.55,14.94,1.09,4.46l-.16-.32C.47,3.3.16,2.38,0,1.44-.06.98.37.16.75.03ZM42.62,30.62c4.71-.1,9.79-2.64,12.61-6.25,3.84-4.93,2.39-10.83-3.32-13.47-4.33-2-8.38-.55-10.12,3.88-2.07,5.28-2.23,10.57.83,15.83Z"/></g></g></svg>