<?xml version="1.0" encoding="UTF-8"?><svg id="Capa_2" xmlns="http://www.w3.org/2000/svg" viewBox="0 0 43.35 22.09"><defs><style>.cls-1{fill:currentColor;}</style></defs><g id="Capa_1-2"><path class="cls-1" d="M37.56,14.47c-.15-.51-.32-1.02-.46-1.54-.48-1.81-1.01-3.61-1.41-5.44-.18-.85-.19-1.76-.1-2.63.09-.77.67-1.27,1.48-1.32.83-.05,1.33.43,1.62,1.16.08.2.11.43.13.64.43,4.3,1.91,8.25,3.86,12.06.2.39.41.79.54,1.21.41,1.36-.31,2.42-1.73,2.57-.16.02-.33.03-.5,0-3.84-.46-7.59.2-11.35.8-.59.09-1.21.11-1.81.04-.65-.07-1.11-.48-1.26-1.14-.17-.73.11-1.34.75-1.68.48-.25,1.03-.4,1.56-.49,2.11-.35,4.22-.67,6.33-.99.11-.15.22-.3.33-.45-.27-.1-.58-.13-.79-.3-4.71-3.67-9.6-7.06-14.93-9.8-3.86-1.98-7.9-3.45-12.25-3.77-1.58-.12-3.19.1-4.78.18-.38.02-.77.14-1.15.14-.68-.01-1.37-.1-1.59-.9-.2-.74.14-1.39.75-1.68.88-.42,1.83-.77,2.78-.93,3.33-.56,6.59-.04,9.82.83,3.33.89,6.44,2.27,9.45,3.92,4.52,2.47,8.76,5.34,12.83,8.48.52.4,1.05.78,1.58,1.17.1-.05.19-.11.29-.16Z"/></g></svg>