<?xml version="1.0" encoding="UTF-8"?><svg id="Capa_2" xmlns="http://www.w3.org/2000/svg" viewBox="0 0 101.43 33.04"><defs><style>.cls-1{fill:#9f163b;}</style></defs><g id="Capa_1-2"><g id="Line-Arrow-18"><path id="Shape" class="cls-1" d="M51.24,25.27c8.56,2.29,16.8,3,25.01-.02,7.37-2.71,13.4-7.58,20.2-12.43-1.29-.2-1.95-.35-2.62-.39-1.09-.06-2.2.05-3.27-.12-.51-.08-.93-.68-1.39-1.04.43-.5.79-1.1,1.31-1.48.32-.23.88-.16,1.33-.15,2.64.08,5.28.2,7.92.27,1.32.03,1.79.76,1.67,1.94-.35,3.72-1.25,7.37-2.67,10.83-.35.84-1.02,1.5-1.89.93-.43-.29-.69-1.24-.6-1.83.16-1.06.66-2.07.96-3.12.27-.94.45-1.9.78-3.33-1.05.69-1.65,1.06-2.22,1.47-2.21,1.61-4.43,3.21-6.61,4.85-11.36,8.54-23.94,10.63-37.51,6.84-2.17-.61-3.67-.26-5.48.93-5.81,3.83-12.22,4.38-18.89,2.81-6.99-1.64-13.2-4.83-18.19-10-2.96-3.06-5.44-6.58-8.1-9.92-.44-.56-.9-1.25-.97-1.92-.07-.59.39-1.24.61-1.86.55.2,1.18.3,1.62.64.4.32.59.9.88,1.36,3.79,5.91,8.44,10.99,14.53,14.58,5.85,3.44,12.11,5.46,19.02,4.69,2.98-.33,5.82-1.47,8.19-3.31-.65-.41-1.19-.81-1.79-1.11-3.34-1.72-6.42-3.81-9.02-6.56-2.22-2.35-3.9-5.03-4.74-8.19-1.33-5.02,1.12-9.33,6.19-10.29,6.62-1.26,12.13,1.13,16.15,6.34,3.95,5.12,3.93,10.77.89,16.43-.34.63-.74,1.23-1.3,2.17ZM47.8,24.14c2.95-2.74,4.13-6.08,3.72-9.87-.62-5.77-4.33-8.97-9.54-10.73-2.11-.71-4.26-.86-6.42-.1-2.87,1.02-4.23,2.97-3.38,5.89.66,2.26,1.72,4.37,3.14,6.25,3.17,4.14,7.61,6.62,12.48,8.56h0Z"/></g></g></svg>