<?xml version="1.0" encoding="UTF-8"?><svg id="Capa_2" xmlns="http://www.w3.org/2000/svg" viewBox="0 0 92.86 48.51"><defs><style>.cls-1{fill:#9f163b;}</style></defs><g id="Capa_1-2"><path class="cls-1" d="M74.86,39.98c1.09,1.21,2.07,2.32,3.08,3.4.56.61,1.21,1.14,1.75,1.76.74.85,1.27,1.8,1.07,3.01-.74.58-1.51.33-2.19,0-.64-.3-1.24-.73-1.76-1.21-1.78-1.66-3.53-3.34-5.24-5.06-.65-.66-1.25-1.41-1.72-2.21-.95-1.61-.79-3.07.57-4.36,1.08-1.02,2.3-1.89,3.52-2.73,1.09-.75,2.23-1.43,3.4-2.05.51-.27,1.15-.45,1.73-.42,1.27.06,1.87,1.42,1.09,2.42-.33.41-.84.7-1.3.99-1.34.85-2.7,1.67-3.99,2.81.34.02.68.1,1.02.07,3.19-.31,6.39-.55,9.35-1.94.99-.47,1.97-1.01,2.85-1.65,1.3-.96,1.62-2.31,1.17-3.84-.4-1.38-1.27-2.43-2.33-3.35-1.41-1.21-3.06-1.94-4.82-2.48-3.55-1.09-7.21-1.63-10.89-1.95-11.03-.98-22.05-.49-33.08.18-7.82.47-15.65.85-23.48,1.02-2.84.06-5.71-.48-8.53-.92-1.17-.18-2.33-.71-3.37-1.3C.25,18.74-.64,16.27.47,13.64c.5-1.19,1.27-2.34,2.15-3.29,2.37-2.58,5.42-3.92,8.85-4.42.92-.14,1.86-.21,3.05-.34-.41-.35-.64-.6-.92-.78-.92-.61-1.9-1.14-2.76-1.82-.83-.65-.93-1.66-.41-2.36.5-.66,1.32-.85,2.23-.32,2.34,1.35,4.7,2.68,6.95,4.18,2.08,1.39,2.41,3.28.83,5.25-1.23,1.54-2.77,2.83-4.21,4.19-.26.25-.67.39-1.04.48-1.03.25-1.82-.4-1.62-1.45.13-.66.51-1.33.94-1.87.44-.55,1.07-.94,1.89-1.62-.77-.18-1.11-.31-1.46-.33-3.25-.17-6.29.48-8.85,2.57-.92.75-1.72,1.73-2.31,2.75-.77,1.31-.37,2.3,1,2.99,1.86.93,3.89,1.19,5.93,1.38,5.35.5,10.7.13,16.05-.17,11.02-.6,22.02-1.6,33.07-1.43,6.35.09,12.7.34,18.94,1.63,2.26.47,4.47,1.18,6.65,1.94,1.84.65,3.45,1.77,4.72,3.27.77.92,1.5,1.93,1.99,3.02,1.48,3.3.59,6.53-2.33,8.65-2.41,1.75-5.14,2.77-8.06,3.28-1.74.31-3.5.46-5.25.7-.54.07-1.08.16-1.66.25Z"/></g></svg>