<?xml version="1.0" encoding="UTF-8"?><svg id="Capa_2" xmlns="http://www.w3.org/2000/svg" viewBox="0 0 20.86 47.9"><defs><style>.cls-1{fill:#9f163b;}</style></defs><g id="Capa_1-2"><g id="Line-Arrow-17"><path id="Path" class="cls-1" d="M13.48,3.08c-1.36.22-2.72.46-4.09.66-.89.13-1.86,0-1.85-1.07,0-.54.71-1.47,1.21-1.54C11.95.62,15.16.12,18.38,0c2.03-.08,2.9,1.52,2.28,3.48-.22.61-.49,1.2-.81,1.76-1,1.98-2.02,3.96-3.01,5.95-1.07,2.15-1.79,2.78-2.61,2.14-1.5-1.17-.24-2.34.18-3.45.39-1.02.91-1.99,1.49-3.26-.49.08-.75.04-.89.16-4.92,4.37-8.93,9.41-10.94,15.78-2.89,9.2.65,17.05,9.43,21.06,1.01.46,2.07.81,3.1,1.21.95.37,1.7.94,1.32,2.07-.38,1.12-1.3,1.14-2.29.84C6.86,45.04-2.08,37.56.43,24.37c1.26-6.59,4.84-11.95,9.31-16.78,1.3-1.4,2.69-2.73,4.05-4.09-.1-.14-.2-.29-.31-.43Z"/></g></g></svg>