<?xml version="1.0" encoding="UTF-8"?><svg id="Capa_2" xmlns="http://www.w3.org/2000/svg" viewBox="0 0 109.08 44.29"><defs><style>.cls-1{fill:#9f163b;}</style></defs><g id="Capa_1-2"><g id="Line-Arrow-3"><path id="Path" class="cls-1" d="M3.82,6.51c-.28,1.61-.54,3.23-.86,4.84-.12.73-.35,1.43-.68,2.1-.17.32-.83.67-1.12.57-.44-.15-.79-.64-1.08-1.06-.13-.19-.07-.54-.03-.81.55-3.28,1.02-6.58,1.7-9.83C2.19.21,3.48-.51,5.44.36c3.04,1.35,5.99,2.9,8.91,4.49.45.25.86,1.27.71,1.77-.24.83-1.11.83-1.87.48-1.92-.87-3.83-1.74-5.75-2.62-.13.3-.3.49-.25.59,5.92,12.28,14.18,22.56,26.2,29.31,17.02,9.56,34.11,8.99,50.92-.67,8.57-4.92,15.33-11.84,20.94-19.91.47-.68.85-1.51,1.48-1.98.48-.36,1.52-.58,1.92-.3.41.29.41,1.25.43,1.93.01.31-.33.65-.53.95-8.13,12.01-18.4,21.53-32.25,26.47-19.81,7.07-37.66,2.93-53.63-10.3-7.21-5.98-12.68-13.4-17.05-21.66-.43-.81-.86-1.61-1.3-2.42h-.51Z"/></g></g></svg>