<svg xmlns="http://www.w3.org/2000/svg" viewBox="0 0 66.16 58.03"><defs><style>.cls-1{fill:#fff;}</style></defs><title>acceso-alumnos-w</title><g id="Capa_2" data-name="Capa 2"><g id="Capa_1-2" data-name="Capa 1"><path class="cls-1" d="M53.65,42.29H0V9.53A2.69,2.69,0,0,1,2.69,6.84h33.8V8.66H2.69a.88.88,0,0,0-.87.87V40.48h50v-17h1.81Z"/><path class="cls-1" d="M50.93,48.59H2.72A2.72,2.72,0,0,1,0,45.87V40.48H53.65v5.39A2.72,2.72,0,0,1,50.93,48.59ZM1.81,42.29v3.57a.91.91,0,0,0,.91.91H50.93a.91.91,0,0,0,.91-.91V42.29Z"/><polygon class="cls-1" points="35.14 58.03 18.51 58.03 18.51 47.68 20.33 47.68 20.33 56.21 33.33 56.21 33.33 47.68 35.14 47.68 35.14 58.03"/><rect class="cls-1" x="13.95" y="56.21" width="25.75" height="1.81"/><path class="cls-1" d="M43.73,25.32H42.56l0-3.49H38.15V0h28V21.83H49.36ZM40,20h4.38v2.78L48.85,20h15.5V1.81H40Z"/><rect class="cls-1" x="43.87" y="6.77" width="7.26" height="1.81"/><rect class="cls-1" x="43.87" y="10.25" width="16.58" height="1.81"/><rect class="cls-1" x="43.87" y="13.73" width="16.58" height="1.81"/><path class="cls-1" d="M42.46,42.19H40.65a4.74,4.74,0,0,0-3.39-4.56l-4.09-1.24a6.2,6.2,0,0,1-2.63-1.6L29.2,33.42V31.89H31v.79l.82.83a4.37,4.37,0,0,0,1.86,1.13l4.1,1.24A6.55,6.55,0,0,1,42.46,42.19Z"/><path class="cls-1" d="M13,41.15H11.19c0-3.44,2.67-4.65,4.67-5.26L18.69,35a11.54,11.54,0,0,0,3.95-2.09V32h1.81v1.73l-.31.27a13.34,13.34,0,0,1-4.92,2.73l-2.82.86C14,38.36,13,39.38,13,41.15Z"/><path class="cls-1" d="M26.83,34.3a4.55,4.55,0,0,1-2.41-.7c-1.93-1.2-4.23-3.13-4.23-5.46V23.48a3.05,3.05,0,0,1,1.09-2.34,2.93,2.93,0,0,1,2.39-.65,4.56,4.56,0,0,0,2.77-.41,10,10,0,0,1,3.91-1,2.93,2.93,0,0,1,2.19.84,3,3,0,0,1,.93,2.19v6c0,2.33-2.3,4.25-4.23,5.46A4.55,4.55,0,0,1,26.83,34.3Zm-3.66-12a1.12,1.12,0,0,0-.72.27,1.24,1.24,0,0,0-.44,1v4.68c0,1.15,1.23,2.58,3.38,3.92a2.72,2.72,0,0,0,2.9,0c2.15-1.34,3.38-2.77,3.38-3.92v-6a1.21,1.21,0,0,0-1.25-1.22h0a8.26,8.26,0,0,0-3.2.83,6.36,6.36,0,0,1-3.86.55Z"/><path class="cls-1" d="M20.27,27.36l-.87-1.83a12.12,12.12,0,0,1-1-3.18,8.31,8.31,0,0,1,.18-3.87,8.58,8.58,0,0,1,8.32-5.92h.24a8.48,8.48,0,0,1,8,5.92,8.28,8.28,0,0,1,.19,3.87,10.39,10.39,0,0,1-1.08,3.18l-.92,1.72-1.6-.85.92-1.72a8.54,8.54,0,0,0,.89-2.63,6.43,6.43,0,0,0-6.67-7.67h-.19A6.7,6.7,0,0,0,20.32,19a6.54,6.54,0,0,0-.12,3,10.23,10.23,0,0,0,.85,2.7l.87,1.83Z"/><path class="cls-1" d="M26.83,38.33a4.19,4.19,0,0,1-4.19-4.19V32.86h1.81v1.28a2.38,2.38,0,0,0,4.75,0V33.2H31v.93A4.19,4.19,0,0,1,26.83,38.33Z"/></g></g></svg>