<svg xmlns="http://www.w3.org/2000/svg" xmlns:xlink="http://www.w3.org/1999/xlink" viewBox="0 0 30.21 35.09"><defs><style>.cls-1{fill:none;}.cls-2{clip-path:url(#clip-path);}.cls-3{fill:#a1163b;}</style><clipPath id="clip-path" transform="translate(0 -2.93)"><polygon class="cls-1" points="1.74 17.91 28.39 17.91 29.64 0.13 0.68 0 1.74 17.91"/></clipPath></defs><title>basket</title><g id="Capa_2" data-name="Capa 2"><g id="Capa_1-2" data-name="Capa 1"><g class="cls-2"><path class="cls-3" d="M15.52,2.93H10.87a.36.36,0,0,0-.36.36V5.8H5.15a.36.36,0,0,0-.36.36V24a.36.36,0,0,0,.36.36H15.52a.36.36,0,0,0,.36-.36V3.29A.36.36,0,0,0,15.52,2.93Zm-.36,18.6H11.23v-.72h3.94ZM5.86,6.9h4.31V19H5.86ZM15,6.65h-3.5V5.8H15ZM5.51,19.75h5v1.07h-5Zm6,.36V7.74H15V20.11ZM15,4v.86h-3.5V4ZM5.51,21.54h5v2.15h-5Zm5.72,2.15V22.25h3.94v1.43Z" transform="translate(0 -2.93)"/><path class="cls-3" d="M26.25,22.52,22,6.06a.36.36,0,0,0-.44-.26L16.15,7.24a.36.36,0,0,0-.25.44l4.29,16.46a.36.36,0,0,0,.44.25L26,23A.36.36,0,0,0,26.25,22.52ZM17.49,10l4.22-1.11.17.64-4.22,1.11Zm4.57.23,2.08,8-4.22,1.11-2.08-8Zm2.47,8.58.37,1.4-4.68,1.25L19.85,20ZM21.25,7l.27,1.13L17.31,9.27,17,8.14ZM20.79,23.6l-.39-1.49,4.68-1.25.39,1.49Z" transform="translate(0 -2.93)"/><path class="cls-3" d="M9.44,9.37H6.58a.36.36,0,0,0-.36.36v2.86a.36.36,0,0,0,.36.36H9.44a.36.36,0,0,0,.36-.36V9.73A.36.36,0,0,0,9.44,9.37Zm-.36,2.86H6.94V10.09H9.08Z" transform="translate(0 -2.93)"/></g><path class="cls-3" d="M28.91,17.59l-1.81-3a.6.6,0,0,0-.52-.29H24.17a.6.6,0,0,0,0,1.21h1.07l1.09,1.81H3.88L5,15.48H4.61a.6.6,0,1,0,0-1.21h-1a.6.6,0,0,0-.52.29l-1.81,3a.6.6,0,0,0,.52.92H28.39a.6.6,0,0,0,.52-.92Z" transform="translate(0 -2.93)"/><path class="cls-3" d="M29,17.87a.6.6,0,0,0-.6-.57H1.81a.6.6,0,0,0-.6.57L0,37.39A.6.6,0,0,0,.6,38h29a.6.6,0,0,0,.6-.64ZM2.24,35.82,3.39,19.5H26.82L28,35.82Z" transform="translate(0 -2.93)"/><path class="cls-3" d="M19.63,20.71a1.81,1.81,0,1,0,1.81,1.81A1.81,1.81,0,0,0,19.63,20.71Zm0,2.42a.6.6,0,1,1,.6-.6A.6.6,0,0,1,19.63,23.13Z" transform="translate(0 -2.93)"/><path class="cls-3" d="M10.57,20.71a1.81,1.81,0,1,0,1.81,1.81A1.81,1.81,0,0,0,10.57,20.71Zm0,2.42a.6.6,0,1,1,.6-.6A.6.6,0,0,1,10.57,23.13Z" transform="translate(0 -2.93)"/><path class="cls-3" d="M19.63,22.53h0a.6.6,0,0,0-.6.6.6.6,0,0,0,0,.23v3.09a3.93,3.93,0,1,1-7.85,0V23.13a.6.6,0,1,0-1.21,0v3.32a5.14,5.14,0,0,0,10.27,0V23.13A.6.6,0,0,0,19.63,22.53Z" transform="translate(0 -2.93)"/><rect class="cls-3" x="15.33" y="11.37" width="2.85" height="1.14"/></g></g></svg>