<svg xmlns="http://www.w3.org/2000/svg" viewBox="0 0 512 512"><defs><style>.cls-1{fill:#a1163b;}.cls-2{fill:#fff;}</style></defs><title>favicon</title><g id="Capa_2" data-name="Capa 2"><g id="Capa_1-2" data-name="Capa 1"><circle class="cls-1" cx="256" cy="256" r="256"/><path class="cls-2" d="M319.31,356.58a59.29,59.29,0,0,1-20.08,19.88q-14.12,8.3-35.64,8.29-27.8,0-44.82-16.59t-20.18-47.52H362.66a210.73,210.73,0,0,0,1.8-27.8q0-29.6-12.33-52.9a91.09,91.09,0,0,0-35.42-36.76q-23.09-13.44-54.91-13.45-32.28,0-57.38,13.9t-39,40.34q-13.9,26.46-13.9,62.31t14.13,62.31A96.55,96.55,0,0,0,205.32,409q25.55,13.9,59.17,13.9,33.17,0,58.5-13.9a86.14,86.14,0,0,0,30.83-27.74ZM219.89,242.2q15.91-14.35,41-14.35t39.89,14.57q14.81,14.57,16.6,41.46H199.49Q204,256.55,219.89,242.2Z"/><g id="g100"><g id="path102"><path class="cls-2" d="M129.74,132.17c2.39-11.69,10.7-23,22.2-29.67S176.75,93,189.4,92.57a138.61,138.61,0,0,1,37,4.18c5.9,1.47,11.76,3.08,17.29,5L259.51,107c21.13,6.91,41.36,13.55,61.66,15.52a95.72,95.72,0,0,0,30.5-1.51A92.47,92.47,0,0,0,367,116a140.59,140.59,0,0,0,15.27-7.84A68.72,68.72,0,0,1,357.74,135c-10.72,6.8-23.39,10.73-36,12.24-25.46,2.89-49.9-2.73-72-9.5-2.78-.86-5.55-1.68-8.26-2.61l-8.33-2.95c-5.22-1.83-10.19-3.74-15.25-5.36a224.31,224.31,0,0,0-30.09-8c-10-1.75-19.92-2.54-29.68-.89a52.59,52.59,0,0,0-14.5,4.69A65.35,65.35,0,0,0,129.74,132.17Z"/></g></g></g></g></svg>