<svg xmlns="http://www.w3.org/2000/svg" viewBox="0 0 51.56 67.44"><defs><style>.cls-1{fill:#fff;}</style></defs><title>favicon-menu</title><g id="Capa_2" data-name="Capa 2"><g id="Capa_1-2" data-name="Capa 1"><path class="cls-1" d="M38.7,53.91A12.1,12.1,0,0,1,34.6,58a14.18,14.18,0,0,1-7.28,1.69,12.56,12.56,0,0,1-9.15-3.39q-3.48-3.38-4.12-9.7h33.5a43,43,0,0,0,.37-5.67A22.75,22.75,0,0,0,45.4,30.1a18.6,18.6,0,0,0-7.23-7.5A21.9,21.9,0,0,0,27,19.85a23.78,23.78,0,0,0-11.71,2.84,19.58,19.58,0,0,0-8,8.24A27,27,0,0,0,4.45,43.65,26.61,26.61,0,0,0,7.33,56.37a19.71,19.71,0,0,0,8.1,8.24,24.89,24.89,0,0,0,12.08,2.84,24.42,24.42,0,0,0,11.94-2.84,17.59,17.59,0,0,0,6.29-5.66ZM18.41,30.56a12,12,0,0,1,8.37-2.93,11.11,11.11,0,0,1,8.14,3q3,3,3.39,8.47H14.24Q15.16,33.49,18.41,30.56Z"/><g id="g100"><g id="path102"><path class="cls-1" d="M0,8.1A9.48,9.48,0,0,1,4.53,2a15.84,15.84,0,0,1,7.65-2,28.3,28.3,0,0,1,7.55.85c1.2.3,2.4.63,3.53,1L26.49,3c4.31,1.41,8.44,2.77,12.59,3.17a19.54,19.54,0,0,0,6.23-.31,18.88,18.88,0,0,0,3.13-1,28.7,28.7,0,0,0,3.12-1.6,14,14,0,0,1-5,5.47,17.72,17.72,0,0,1-7.35,2.5C34,11.76,29,10.62,24.5,9.23c-.57-.18-1.13-.34-1.69-.53l-1.7-.6C20,7.73,19,7.34,18,7a45.79,45.79,0,0,0-6.14-1.64,17.84,17.84,0,0,0-6.06-.18,10.74,10.74,0,0,0-3,1A13.34,13.34,0,0,0,0,8.1Z"/></g></g></g></g></svg>