<svg xmlns="http://www.w3.org/2000/svg" xmlns:xlink="http://www.w3.org/1999/xlink" viewBox="0 0 526.09 518.26"><defs><style>.cls-1{fill:url(#Degradado_sin_nombre_26);}.cls-2{fill:#f1dade;}.cls-3{fill:#fff;}</style><linearGradient id="Degradado_sin_nombre_26" x1="89.22" y1="298.29" x2="526.09" y2="298.29" gradientUnits="userSpaceOnUse"><stop offset="0" stop-color="#f1dade"/><stop offset="0.1" stop-color="#f1d9dc" stop-opacity="0.98"/><stop offset="0.23" stop-color="#f0d6d8" stop-opacity="0.91"/><stop offset="0.37" stop-color="#efd1d0" stop-opacity="0.79"/><stop offset="0.53" stop-color="#edcac6" stop-opacity="0.63"/><stop offset="0.71" stop-color="#ebc1b8" stop-opacity="0.42"/><stop offset="0.88" stop-color="#e8b6a8" stop-opacity="0.18"/><stop offset="1" stop-color="#e6ae9c" stop-opacity="0"/></linearGradient></defs><title>fondo-dos</title><g id="Capa_2" data-name="Capa 2"><g id="Capa_1-2" data-name="Capa 1"><path class="cls-1" d="M526.09,299.82c0,120.64-97.8,218.44-218.44,218.44S89.22,420.46,89.22,299.82,192.2,1.57,326.59,114.24C396.75,173.07,526.09,179.18,526.09,299.82Z"/><circle class="cls-2" cx="66.13" cy="66.13" r="66.13"/><path class="cls-3" d="M77.9,84.25a11.5,11.5,0,0,1-4,3.8A13.48,13.48,0,0,1,67,89.54a11.93,11.93,0,0,1-8.64-3.36q-3.26-3.27-3.77-9.28l31.83.51A40.89,40.89,0,0,0,86.85,72a21.62,21.62,0,0,0-2.23-10.3,17.67,17.67,0,0,0-6.76-7.24A20.81,20.81,0,0,0,67.26,51.7a22.6,22.6,0,0,0-11.17,2.52,18.6,18.6,0,0,0-7.69,7.71A25.65,25.65,0,0,0,45.5,74,25.29,25.29,0,0,0,48,86.11a18.73,18.73,0,0,0,7.57,7.95,23.65,23.65,0,0,0,11.44,2.88,23.21,23.21,0,0,0,11.39-2.52,16.71,16.71,0,0,0,6.07-5.29ZM59,61.75a11.42,11.42,0,0,1,8-2.66A10.56,10.56,0,0,1,74.66,62q2.83,2.87,3.09,8.1l-22.87-.36A13.4,13.4,0,0,1,59,61.75Z"/><g id="g100"><g id="path102"><path class="cls-3" d="M41.81,40.12a9,9,0,0,1,4.4-5.69,15.06,15.06,0,0,1,7.3-1.81,26.89,26.89,0,0,1,7.16.92c1.14.3,2.27.63,3.34,1l3.05,1.06A57.12,57.12,0,0,0,79,38.83a18.57,18.57,0,0,0,5.92-.2,17.94,17.94,0,0,0,3-.91,27.28,27.28,0,0,0,3-1.47A13.33,13.33,0,0,1,86,41.38a16.84,16.84,0,0,1-7,2.26c-4.95.48-9.67-.68-13.94-2.07-.54-.18-1.07-.34-1.6-.53l-1.61-.6c-1-.37-2-.76-2.94-1.09a43.52,43.52,0,0,0-5.81-1.65,17,17,0,0,0-5.76-.27,10.2,10.2,0,0,0-2.83.87A12.68,12.68,0,0,0,41.81,40.12Z"/></g></g></g></g></svg>