<svg xmlns="http://www.w3.org/2000/svg" xmlns:xlink="http://www.w3.org/1999/xlink" viewBox="0 0 515.2 561.95"><defs><style>.cls-1{fill:#6da8a5;}.cls-2{fill:#fff;}.cls-3{fill:url(#Degradado_sin_nombre_30);}</style><linearGradient id="Degradado_sin_nombre_30" x1="46.3" y1="311.1" x2="515.2" y2="311.1" gradientTransform="matrix(-1, 0, 0, 1, 561.5, 0)" gradientUnits="userSpaceOnUse"><stop offset="0" stop-color="#6da8a5"/><stop offset="1" stop-color="#2581c4" stop-opacity="0"/></linearGradient></defs><title>fondo-cuatro</title><g id="Capa_2" data-name="Capa 2"><g id="Capa_1-2" data-name="Capa 1"><circle class="cls-1" cx="64.9" cy="64.9" r="64.9" transform="translate(-2.82 126.86) rotate(-87.45)"/><path class="cls-2" d="M75.65,83.18a11.29,11.29,0,0,1-4,3.55,13.23,13.23,0,0,1-6.87,1.17,11.71,11.71,0,0,1-8.33-3.67Q53.36,80.88,53.12,75l31.19,1.89A40.13,40.13,0,0,0,85,71.59a21.22,21.22,0,0,0-1.74-10.2A17.35,17.35,0,0,0,76.92,54a20.42,20.42,0,0,0-10.28-3.19,22.18,22.18,0,0,0-11.07,2A18.26,18.26,0,0,0,47.7,60,25.18,25.18,0,0,0,44.34,71.7a24.82,24.82,0,0,0,2,12,18.39,18.39,0,0,0,7.08,8.13,23.21,23.21,0,0,0,11.09,3.32,22.78,22.78,0,0,0,11.28-2,16.4,16.4,0,0,0,6.18-4.92ZM58.07,60.3A11.21,11.21,0,0,1,66,58a10.36,10.36,0,0,1,7.42,3.23q2.65,2.94,2.68,8.07L53.71,68A13.15,13.15,0,0,1,58.07,60.3Z"/><g id="g100"><g id="path102"><path class="cls-2" d="M42.2,38.34A8.85,8.85,0,0,1,46.76,33,14.78,14.78,0,0,1,54,31.5a26.4,26.4,0,0,1,7,1.22c1.1.35,2.2.72,3.23,1.15L67.16,35A56.07,56.07,0,0,0,78.7,38.7a18.23,18.23,0,0,0,5.82.06,17.61,17.61,0,0,0,3-.76,26.77,26.77,0,0,0,3-1.32,13.09,13.09,0,0,1-5,4.81,16.53,16.53,0,0,1-7,1.91c-4.87.26-9.45-1.09-13.58-2.63-.52-.2-1-.38-1.54-.59l-1.55-.66c-1-.41-1.89-.83-2.84-1.19a42.72,42.72,0,0,0-5.63-1.88A16.64,16.64,0,0,0,47.76,36a10,10,0,0,0-2.81.73A12.44,12.44,0,0,0,42.2,38.34Z"/></g></g><path class="cls-3" d="M46.3,327.5C46.3,457,151.27,562,280.75,562S515.2,457,515.2,327.5s-120.9,0-234.45-234.45C224.31-23.49,46.3,198,46.3,327.5Z"/></g></g></svg>