<?xml version="1.0" encoding="UTF-8"?><svg id="Capa_2" xmlns="http://www.w3.org/2000/svg" viewBox="0 0 29.24 38.57"><defs><style>.cls-1{fill:#fff;}</style></defs><g id="Capa_2-2"><g id="Capa_1-2"><path class="cls-1" d="M20.27,31.29c-.67.93-1.49,1.66-2.44,2.16-1.12.57-2.51.8-4.15.7-2.14-.13-3.82-.86-5.05-2.22-1.23-1.36-1.9-3.23-2-5.61l18.88,1.15c.21-1.02.34-2.09.4-3.19.14-2.27-.21-4.33-1.05-6.18-.83-1.85-2.11-3.34-3.82-4.47s-3.78-1.79-6.23-1.93-4.71.26-6.71,1.2c-2,.94-3.58,2.41-4.77,4.38-1.18,1.96-1.87,4.33-2.03,7.07s.22,5.17,1.2,7.27c.96,2.09,2.4,3.74,4.28,4.92,1.9,1.18,4.14,1.85,6.71,2.01s4.82-.24,6.83-1.2c1.55-.73,2.79-1.72,3.74-2.97l-3.8-3.08h.02ZM9.63,17.43c1.29-1.02,2.89-1.49,4.82-1.37s3.42.77,4.49,1.95,1.61,2.81,1.63,4.89l-13.57-.81c.48-2.08,1.36-3.63,2.63-4.65Z"/><g id="g100"><g id="path102"><path class="cls-1" d="M.02,4.14C.37,2.82,1.41,1.57,2.78.88,4.15.18,5.7-.04,7.15,0c1.47.03,2.89.34,4.23.73.67.21,1.33.43,1.95.7l1.79.7c2.38.94,4.66,1.85,6.99,2.22,1.17.19,2.33.22,3.51.03.59-.1,1.2-.26,1.8-.46s1.2-.5,1.8-.8c-.69,1.18-1.72,2.2-3,2.91-1.28.7-2.76,1.07-4.23,1.17-2.95.16-5.72-.65-8.22-1.6-.32-.11-.62-.24-.93-.35l-.94-.4c-.59-.24-1.15-.5-1.72-.72-1.13-.46-2.27-.85-3.4-1.13-1.13-.27-2.27-.43-3.42-.3-.57.06-1.13.21-1.71.43-.57.24-1.12.59-1.66,1.01h.02Z"/></g></g></g></g></svg>