<svg xmlns="http://www.w3.org/2000/svg" viewBox="0 0 213.37 130.26"><defs><style>.cls-1{fill:#1d1d1b;}.cls-2{fill:#a1163b;}</style></defs><title>logo-elebe</title><g id="Capa_2" data-name="Capa 2"><g id="Capa_1-2" data-name="Capa 1"><path class="cls-1" d="M116.41,91.72l.14-67.08c.14,0,10.75,2,10.75,2V48.32c3.07-3.67,8.52-5.95,14.07-5.95,12,0,22.68,9.41,22.68,25.37,0,14.67-9.4,25.47-22.68,25.47-5.25,0-10.7-1.69-14.07-5.85v4.32Zm38.47-23.88c0-10.29-6.2-16-15-15.7s-13.36,7.56-13.36,15.7c0,9.12,4.75,15.2,13.46,15.4C148.4,83.43,154.87,78,154.87,67.84Z"/><g id="g100"><g id="path102"><path class="cls-2" d="M56.73,0C42,0,29.61,2.81,19.83,8.44A43.81,43.81,0,0,0,.88,29.3C10.64,20.87,37.42,5.74,96,18.55c2.47.54,5,1.11,7.51,1.68,33.6,7.56,71.3,16,106.12-10.73a87.37,87.37,0,0,1-15,5.84c-16,4.63-42.74,7.63-79.21-4.39C93.22,3.66,73.49,0,56.73,0Z"/></g></g><path class="cls-1" d="M102.21,78.9a12.8,12.8,0,0,1-4.33,4.29A15,15,0,0,1,90.18,85a13.27,13.27,0,0,1-9.67-3.58q-3.68-3.58-4.36-10.26h35.41a45.48,45.48,0,0,0,.39-6,24,24,0,0,0-2.66-11.42,19.66,19.66,0,0,0-7.64-7.93,23.15,23.15,0,0,0-11.85-2.9,25.13,25.13,0,0,0-12.38,3A20.69,20.69,0,0,0,69,54.6,28.54,28.54,0,0,0,66,68,28.13,28.13,0,0,0,69,81.5a20.84,20.84,0,0,0,8.56,8.71,26.31,26.31,0,0,0,12.77,3,25.82,25.82,0,0,0,12.62-3,18.59,18.59,0,0,0,6.65-6ZM80.75,54.21a12.71,12.71,0,0,1,8.85-3.1,11.74,11.74,0,0,1,8.61,3.14q3.2,3.15,3.58,8.95H76.35Q77.32,57.31,80.75,54.21Z"/><rect class="cls-1" x="50.7" y="24.64" width="9.8" height="67.06"/><path class="cls-1" d="M36.21,78.9a12.8,12.8,0,0,1-4.33,4.29A15,15,0,0,1,24.19,85a13.27,13.27,0,0,1-9.67-3.58q-3.68-3.58-4.36-10.26H45.57a45.48,45.48,0,0,0,.39-6A24,24,0,0,0,43.3,53.73a19.66,19.66,0,0,0-7.64-7.93,23.15,23.15,0,0,0-11.85-2.9,25.13,25.13,0,0,0-12.38,3A20.69,20.69,0,0,0,3,54.6,28.54,28.54,0,0,0,0,68,28.13,28.13,0,0,0,3,81.5a20.84,20.84,0,0,0,8.56,8.71,26.31,26.31,0,0,0,12.77,3A25.82,25.82,0,0,0,37,90.2a18.59,18.59,0,0,0,6.65-6ZM14.76,54.21a12.71,12.71,0,0,1,8.85-3.1,11.74,11.74,0,0,1,8.61,3.14q3.2,3.15,3.58,8.95H10.35Q11.32,57.31,14.76,54.21Z"/><path class="cls-1" d="M203.63,78.9a12.8,12.8,0,0,1-4.33,4.29A15,15,0,0,1,191.6,85a13.27,13.27,0,0,1-9.67-3.58q-3.68-3.58-4.36-10.26H213a45.48,45.48,0,0,0,.39-6,24,24,0,0,0-2.66-11.42,19.66,19.66,0,0,0-7.64-7.93,23.15,23.15,0,0,0-11.85-2.9,25.13,25.13,0,0,0-12.38,3,20.69,20.69,0,0,0-8.42,8.71,28.54,28.54,0,0,0-3,13.45,28.13,28.13,0,0,0,3,13.45A20.84,20.84,0,0,0,179,90.2a26.31,26.31,0,0,0,12.77,3,25.82,25.82,0,0,0,12.62-3,18.59,18.59,0,0,0,6.65-6ZM182.17,54.21a12.71,12.71,0,0,1,8.85-3.1,11.74,11.74,0,0,1,8.61,3.14q3.2,3.15,3.58,8.95H177.77Q178.74,57.31,182.17,54.21Z"/><path class="cls-1" d="M4.8,112q.85-.21,2.24-.45a19.23,19.23,0,0,1,3.22-.24,6.06,6.06,0,0,1,2.23.36,3.91,3.91,0,0,1,1.51,1l.58-.37a6.41,6.41,0,0,1,1-.46,10.47,10.47,0,0,1,1.3-.4,6.58,6.58,0,0,1,1.54-.17,6.24,6.24,0,0,1,2.6.46,3.72,3.72,0,0,1,1.58,1.31,5.09,5.09,0,0,1,.77,2,15.15,15.15,0,0,1,.2,2.54v7.74H21.08v-7.21a15.85,15.85,0,0,0-.12-2.09,4,4,0,0,0-.45-1.46,2.07,2.07,0,0,0-.9-.86,3.36,3.36,0,0,0-1.47-.28,5.46,5.46,0,0,0-2.05.33,4,4,0,0,0-1.1.6,9.13,9.13,0,0,1,.32,1.51,13.53,13.53,0,0,1,.11,1.72v7.74H12.94v-7.21a14.28,14.28,0,0,0-.13-2.09,4.24,4.24,0,0,0-.46-1.46,2.07,2.07,0,0,0-.9-.86,3.29,3.29,0,0,0-1.44-.28l-.79,0-.81.07-.7.09-.42.08v11.63H4.8Z"/><path class="cls-1" d="M26.69,118.5a8.79,8.79,0,0,1,.53-3.19,6.65,6.65,0,0,1,1.4-2.27,5.71,5.71,0,0,1,2-1.35,6.28,6.28,0,0,1,2.33-.45A5.3,5.3,0,0,1,37.24,113a8,8,0,0,1,1.48,5.29v.41a3.77,3.77,0,0,1,0,.46H29.26a5,5,0,0,0,1.25,3.26,4.56,4.56,0,0,0,3.39,1.11,9,9,0,0,0,2.19-.22,7.91,7.91,0,0,0,1.34-.44l.34,2.07a7.28,7.28,0,0,1-1.58.5,11.2,11.2,0,0,1-2.56.27,8.11,8.11,0,0,1-3.11-.54,5.81,5.81,0,0,1-2.16-1.5,6.09,6.09,0,0,1-1.26-2.27A9.56,9.56,0,0,1,26.69,118.5Zm9.46-1.35a4.14,4.14,0,0,0-.83-2.74,2.88,2.88,0,0,0-2.37-1.07,3.25,3.25,0,0,0-1.5.33,3.54,3.54,0,0,0-1.1.86,3.94,3.94,0,0,0-.7,1.22,6,6,0,0,0-.33,1.4Z"/><path class="cls-1" d="M42.12,125.36V105.22l2.46-.42v7a8.64,8.64,0,0,1,3-.56,7,7,0,0,1,2.73.46,4.26,4.26,0,0,1,1.74,1.3,5,5,0,0,1,.92,2,11.67,11.67,0,0,1,.26,2.57v7.74H50.78v-7.21a11.82,11.82,0,0,0-.17-2.17,3.67,3.67,0,0,0-.57-1.46,2.25,2.25,0,0,0-1.06-.81,4.65,4.65,0,0,0-1.64-.25,6.67,6.67,0,0,0-.82.05l-.81.12c-.26,0-.49.09-.69.15l-.44.13v11.45Z"/><path class="cls-1" d="M62.18,111.29c.21,0,.45,0,.73,0l.81.11.73.13.49.12-.42,2.15a8.4,8.4,0,0,0-1-.25,8.51,8.51,0,0,0-1.74-.15,6.48,6.48,0,0,0-1.36.15l-.89.2v11.58H57.09v-13.2a16.76,16.76,0,0,1,2.17-.6A14,14,0,0,1,62.18,111.29Z"/><path class="cls-1" d="M77.57,111.24a7.15,7.15,0,0,1,2.5.38,4.05,4.05,0,0,1,1.64,1.09,4.11,4.11,0,0,1,.89,1.67,8.06,8.06,0,0,1,.27,2.13v8.61l-.89.15q-.57.09-1.29.17l-1.55.15q-.83.07-1.66.07a9.06,9.06,0,0,1-2.15-.24,4.8,4.8,0,0,1-1.7-.75,3.45,3.45,0,0,1-1.11-1.37,4.78,4.78,0,0,1-.4-2,3.92,3.92,0,0,1,.46-2A3.69,3.69,0,0,1,73.86,118a5.84,5.84,0,0,1,1.85-.74,10.1,10.1,0,0,1,2.23-.24q.37,0,.77,0t.76.11l.62.12.37.08v-.69a5.56,5.56,0,0,0-.13-1.21,2.77,2.77,0,0,0-.48-1.06,2.42,2.42,0,0,0-.94-.74,3.69,3.69,0,0,0-1.55-.28,11.6,11.6,0,0,0-2.13.17,7.53,7.53,0,0,0-1.36.36l-.29-2a7.61,7.61,0,0,1,1.59-.41A13.71,13.71,0,0,1,77.57,111.24Zm.21,12.35q.87,0,1.55,0a6.79,6.79,0,0,0,1.13-.15v-4.11a3.19,3.19,0,0,0-.86-.23,9.63,9.63,0,0,0-1.44-.09,9.21,9.21,0,0,0-1.18.08,3.63,3.63,0,0,0-1.14.33,2.45,2.45,0,0,0-.86.69,1.81,1.81,0,0,0-.34,1.15,2,2,0,0,0,.85,1.84A4.41,4.41,0,0,0,77.78,123.59Z"/><path class="cls-1" d="M90.93,125.63a4.72,4.72,0,0,1-3.23-1,3.87,3.87,0,0,1-1-2.89V105.22l2.46-.42v16.56a4,4,0,0,0,.11,1,1.38,1.38,0,0,0,.34.64,1.47,1.47,0,0,0,.64.36,6.56,6.56,0,0,0,1,.2Z"/><path class="cls-1" d="M97.08,123.59a4.86,4.86,0,0,0,2.24-.4,1.34,1.34,0,0,0,.73-1.27,1.69,1.69,0,0,0-.71-1.43A11.35,11.35,0,0,0,97,119.29q-.8-.32-1.52-.65a5.37,5.37,0,0,1-1.26-.78,3.42,3.42,0,0,1-.85-1.09,3.47,3.47,0,0,1-.32-1.56,3.51,3.51,0,0,1,1.35-2.9,5.77,5.77,0,0,1,3.68-1.07,10.37,10.37,0,0,1,1.17.07q.58.07,1.09.16t.89.2l.6.19-.45,2.12a6.2,6.2,0,0,0-1.25-.44,8,8,0,0,0-2-.23,3.76,3.76,0,0,0-1.8.41,1.36,1.36,0,0,0-.77,1.29,1.75,1.75,0,0,0,.17.79,1.83,1.83,0,0,0,.53.62,4.35,4.35,0,0,0,.89.52q.53.24,1.27.5,1,.37,1.75.73a5.5,5.5,0,0,1,1.31.83,3.21,3.21,0,0,1,.83,1.15,4.18,4.18,0,0,1,.29,1.66,3.29,3.29,0,0,1-1.42,2.89,7.06,7.06,0,0,1-4,1,10.6,10.6,0,0,1-2.86-.3q-1-.3-1.41-.46l.45-2.12,1.35.48A7.8,7.8,0,0,0,97.08,123.59Z"/><path class="cls-1" d="M115.92,123.53q4,0,4-2.76a2.76,2.76,0,0,0-.36-1.44,3.47,3.47,0,0,0-1-1,6.75,6.75,0,0,0-1.39-.75q-.78-.32-1.66-.64a16.72,16.72,0,0,1-1.91-.78,6.66,6.66,0,0,1-1.56-1,4.38,4.38,0,0,1-1-1.42,4.67,4.67,0,0,1-.38-2,4.6,4.6,0,0,1,1.64-3.76,6.93,6.93,0,0,1,4.53-1.35,12,12,0,0,1,3,.36,6.94,6.94,0,0,1,2,.78l-.82,2.09a7.31,7.31,0,0,0-1.66-.68,8.9,8.9,0,0,0-2.56-.33,5.65,5.65,0,0,0-1.38.16,3.51,3.51,0,0,0-1.11.48,2.36,2.36,0,0,0-.76.81,2.3,2.3,0,0,0-.28,1.15,2.44,2.44,0,0,0,.29,1.25,2.88,2.88,0,0,0,.82.89,7,7,0,0,0,1.23.7q.7.32,1.55.64,1.19.48,2.19,1a7.16,7.16,0,0,1,1.72,1.14,4.56,4.56,0,0,1,1.13,1.58,5.55,5.55,0,0,1,.4,2.21,4.33,4.33,0,0,1-1.76,3.71,8.25,8.25,0,0,1-5,1.3,12.8,12.8,0,0,1-2-.15,14.92,14.92,0,0,1-1.63-.34,9.43,9.43,0,0,1-1.23-.42q-.52-.23-.81-.38l.77-2.12a11.46,11.46,0,0,0,1.86.77A9.51,9.51,0,0,0,115.92,123.53Z"/><path class="cls-1" d="M137.57,118.5a9.7,9.7,0,0,1-.41,2.89,6.54,6.54,0,0,1-1.21,2.28,5.48,5.48,0,0,1-1.95,1.48,6.24,6.24,0,0,1-2.64.53,6.4,6.4,0,0,1-2.11-.32,6.67,6.67,0,0,1-1.37-.61v5.51h-2.46V112q.87-.21,2.19-.46a16.22,16.22,0,0,1,3-.25,7.73,7.73,0,0,1,2.86.5,6.13,6.13,0,0,1,2.17,1.43,6.33,6.33,0,0,1,1.39,2.27A8.69,8.69,0,0,1,137.57,118.5Zm-2.57,0a5.29,5.29,0,0,0-1.19-3.71,4.11,4.11,0,0,0-3.18-1.3,14.62,14.62,0,0,0-1.74.08,7.17,7.17,0,0,0-1,.19v8.69a5.05,5.05,0,0,0,1.3.72,4.89,4.89,0,0,0,1.86.34,4,4,0,0,0,1.81-.38,3.32,3.32,0,0,0,1.23-1.06,4.48,4.48,0,0,0,.69-1.59A8.76,8.76,0,0,0,135,118.5Z"/><path class="cls-1" d="M145.33,111.24a7.15,7.15,0,0,1,2.5.38,4.05,4.05,0,0,1,1.64,1.09,4.11,4.11,0,0,1,.89,1.67,8.06,8.06,0,0,1,.27,2.13v8.61l-.89.15q-.57.09-1.29.17l-1.55.15q-.83.07-1.66.07a9.06,9.06,0,0,1-2.15-.24,4.8,4.8,0,0,1-1.7-.75,3.45,3.45,0,0,1-1.11-1.37,4.78,4.78,0,0,1-.4-2,3.92,3.92,0,0,1,.46-2,3.69,3.69,0,0,1,1.26-1.33,5.84,5.84,0,0,1,1.85-.74,10.1,10.1,0,0,1,2.23-.24q.37,0,.77,0t.76.11l.62.12.37.08v-.69a5.56,5.56,0,0,0-.13-1.21,2.77,2.77,0,0,0-.48-1.06,2.42,2.42,0,0,0-.94-.74,3.69,3.69,0,0,0-1.55-.28,11.6,11.6,0,0,0-2.13.17,7.53,7.53,0,0,0-1.36.36l-.29-2a7.61,7.61,0,0,1,1.59-.41A13.71,13.71,0,0,1,145.33,111.24Zm.21,12.35q.87,0,1.55,0a6.79,6.79,0,0,0,1.13-.15v-4.11a3.19,3.19,0,0,0-.86-.23,9.63,9.63,0,0,0-1.44-.09,9.21,9.21,0,0,0-1.18.08,3.63,3.63,0,0,0-1.14.33,2.45,2.45,0,0,0-.86.69,1.81,1.81,0,0,0-.34,1.15,2,2,0,0,0,.85,1.84A4.41,4.41,0,0,0,145.54,123.59Z"/><path class="cls-1" d="M154.55,112q.85-.21,2.25-.45a19.48,19.48,0,0,1,3.23-.24,7,7,0,0,1,2.73.46,4.26,4.26,0,0,1,1.74,1.3,5,5,0,0,1,.92,2,11.67,11.67,0,0,1,.26,2.57v7.74h-2.46v-7.21A11.82,11.82,0,0,0,163,116a3.67,3.67,0,0,0-.57-1.46,2.25,2.25,0,0,0-1.06-.81,4.65,4.65,0,0,0-1.64-.25l-.82,0-.81.07-.69.09-.44.08v11.63h-2.46Z"/><path class="cls-1" d="M170.82,109.09a1.58,1.58,0,0,1-1.13-.44,1.73,1.73,0,0,1,0-2.36,1.67,1.67,0,0,1,2.25,0,1.73,1.73,0,0,1,0,2.36A1.58,1.58,0,0,1,170.82,109.09Zm1.25,16.27h-2.46V111.58h2.46Z"/><path class="cls-1" d="M179.36,123.59a4.86,4.86,0,0,0,2.24-.4,1.34,1.34,0,0,0,.73-1.27,1.69,1.69,0,0,0-.71-1.43,11.35,11.35,0,0,0-2.36-1.19q-.8-.32-1.52-.65a5.37,5.37,0,0,1-1.26-.78,3.42,3.42,0,0,1-.85-1.09,3.47,3.47,0,0,1-.32-1.56,3.51,3.51,0,0,1,1.35-2.9,5.77,5.77,0,0,1,3.68-1.07,10.37,10.37,0,0,1,1.17.07q.58.07,1.09.16t.89.2l.6.19-.45,2.12a6.2,6.2,0,0,0-1.25-.44,8,8,0,0,0-2-.23,3.76,3.76,0,0,0-1.8.41,1.36,1.36,0,0,0-.77,1.29,1.75,1.75,0,0,0,.17.79,1.83,1.83,0,0,0,.53.62,4.35,4.35,0,0,0,.89.52q.53.24,1.27.5,1,.37,1.75.73a5.5,5.5,0,0,1,1.31.83,3.21,3.21,0,0,1,.83,1.15,4.18,4.18,0,0,1,.29,1.66,3.29,3.29,0,0,1-1.42,2.89,7.06,7.06,0,0,1-4,1,10.6,10.6,0,0,1-2.86-.3q-1-.3-1.41-.46l.45-2.12,1.35.48A7.8,7.8,0,0,0,179.36,123.59Z"/><path class="cls-1" d="M193.8,125.68a7.5,7.5,0,0,1-2.93-.53,5.89,5.89,0,0,1-2.12-1.48,6.15,6.15,0,0,1-1.29-2.27,9.41,9.41,0,0,1-.42-2.9,8.76,8.76,0,0,1,.46-2.92,6.86,6.86,0,0,1,1.31-2.29,5.88,5.88,0,0,1,2.08-1.51,6.73,6.73,0,0,1,2.74-.54,11,11,0,0,1,1.85.16,8.58,8.58,0,0,1,1.78.5l-.56,2.09a5.92,5.92,0,0,0-1.29-.42,7.29,7.29,0,0,0-1.55-.16,3.92,3.92,0,0,0-3.17,1.3,5.72,5.72,0,0,0-1.1,3.79,7.77,7.77,0,0,0,.25,2,4.2,4.2,0,0,0,.79,1.59,3.53,3.53,0,0,0,1.39,1,5.32,5.32,0,0,0,2.07.36,7.86,7.86,0,0,0,1.78-.18,6.5,6.5,0,0,0,1.25-.4l.34,2.07a2.58,2.58,0,0,1-.61.25,8.82,8.82,0,0,1-.9.21q-.5.09-1.07.16A9.6,9.6,0,0,1,193.8,125.68Z"/><path class="cls-1" d="M200,125.36V105.22l2.46-.42v7a8.64,8.64,0,0,1,3-.56,7,7,0,0,1,2.73.46,4.26,4.26,0,0,1,1.74,1.3,5,5,0,0,1,.92,2,11.67,11.67,0,0,1,.26,2.57v7.74h-2.46v-7.21a11.82,11.82,0,0,0-.17-2.17,3.67,3.67,0,0,0-.57-1.46,2.25,2.25,0,0,0-1.06-.81,4.65,4.65,0,0,0-1.64-.25,6.67,6.67,0,0,0-.82.05l-.81.12c-.26,0-.49.09-.69.15l-.44.13v11.45Z"/></g></g></svg>