<svg xmlns="http://www.w3.org/2000/svg" viewBox="0 0 219.9 134.24"><defs><style>.cls-1{fill:#fff;}</style></defs><title>logo-elebe-w</title><g id="Capa_2" data-name="Capa 2"><g id="Capa_1-2" data-name="Capa 1"><path class="cls-1" d="M120,94.52l.15-69.13c.15,0,11.08,2.1,11.08,2.1V49.79c3.17-3.78,8.78-6.13,14.5-6.13,12.36,0,23.37,9.7,23.37,26.14,0,15.11-9.69,26.24-23.37,26.24-5.41,0-11-1.74-14.5-6v4.45Zm39.64-24.61c0-10.61-6.39-16.44-15.41-16.18s-13.77,7.79-13.77,16.18c0,9.4,4.9,15.67,13.87,15.87C152.94,86,159.61,80.43,159.61,69.91Z"/><g id="g100"><g id="path102"><path class="cls-1" d="M58.47,0c-15.15,0-27.95,2.89-38,8.69A45.15,45.15,0,0,0,.91,30.2C11,21.51,38.57,5.92,98.89,19.12c2.55.56,5.13,1.14,7.74,1.73C141.26,28.64,180.11,37.38,216,9.79a90,90,0,0,1-15.49,6c-16.5,4.77-44,7.86-81.63-4.52C96.07,3.77,75.74,0,58.47,0Z"/></g></g><path class="cls-1" d="M105.33,81.31a13.19,13.19,0,0,1-4.47,4.42,15.45,15.45,0,0,1-7.93,1.84,13.68,13.68,0,0,1-10-3.69q-3.79-3.69-4.49-10.57H115a46.87,46.87,0,0,0,.4-6.18,24.78,24.78,0,0,0-2.74-11.77,20.26,20.26,0,0,0-7.88-8.18,23.85,23.85,0,0,0-12.21-3A25.9,25.9,0,0,0,79.78,47.3a21.33,21.33,0,0,0-8.68,9A29.41,29.41,0,0,0,68,70.13,29,29,0,0,0,71.16,84,21.47,21.47,0,0,0,80,93a27.11,27.11,0,0,0,13.16,3.09,26.6,26.6,0,0,0,13-3.09A19.16,19.16,0,0,0,113,86.79ZM83.22,55.87a13.09,13.09,0,0,1,9.12-3.19,12.1,12.1,0,0,1,8.87,3.24q3.29,3.24,3.69,9.22H78.68Q79.68,59.06,83.22,55.87Z"/><rect class="cls-1" x="52.25" y="25.39" width="10.1" height="69.11"/><path class="cls-1" d="M37.32,81.31a13.19,13.19,0,0,1-4.47,4.42,15.45,15.45,0,0,1-7.93,1.84,13.68,13.68,0,0,1-10-3.69q-3.79-3.69-4.49-10.57H47a46.87,46.87,0,0,0,.4-6.18,24.78,24.78,0,0,0-2.74-11.77,20.26,20.26,0,0,0-7.88-8.18,23.85,23.85,0,0,0-12.21-3A25.9,25.9,0,0,0,11.77,47.3a21.33,21.33,0,0,0-8.68,9A29.41,29.41,0,0,0,0,70.13,29,29,0,0,0,3.14,84,21.47,21.47,0,0,0,12,93a27.11,27.11,0,0,0,13.16,3.09,26.6,26.6,0,0,0,13-3.09A19.16,19.16,0,0,0,45,86.79ZM15.21,55.87a13.09,13.09,0,0,1,9.12-3.19,12.1,12.1,0,0,1,8.87,3.24q3.29,3.24,3.69,9.22H10.67Q11.67,59.06,15.21,55.87Z"/><path class="cls-1" d="M209.85,81.31a13.19,13.19,0,0,1-4.47,4.42,15.45,15.45,0,0,1-7.93,1.84,13.68,13.68,0,0,1-10-3.69Q183.7,80.2,183,73.32h36.49a46.87,46.87,0,0,0,.4-6.18,24.78,24.78,0,0,0-2.74-11.77,20.26,20.26,0,0,0-7.88-8.18,23.85,23.85,0,0,0-12.21-3A25.9,25.9,0,0,0,184.3,47.3a21.33,21.33,0,0,0-8.68,9,29.41,29.41,0,0,0-3.09,13.86A29,29,0,0,0,175.68,84a21.47,21.47,0,0,0,8.82,9,27.11,27.11,0,0,0,13.16,3.09,26.6,26.6,0,0,0,13-3.09,19.16,19.16,0,0,0,6.86-6.17ZM187.74,55.87a13.09,13.09,0,0,1,9.12-3.19,12.1,12.1,0,0,1,8.87,3.24q3.29,3.24,3.69,9.22H183.2Q184.2,59.06,187.74,55.87Z"/><path class="cls-1" d="M5,115.4q.87-.22,2.31-.46a19.82,19.82,0,0,1,3.32-.25,6.25,6.25,0,0,1,2.29.37,4,4,0,0,1,1.56,1.08l.6-.38a6.6,6.6,0,0,1,1-.48,10.79,10.79,0,0,1,1.34-.41,6.78,6.78,0,0,1,1.58-.18,6.43,6.43,0,0,1,2.68.48,3.84,3.84,0,0,1,1.62,1.35,5.25,5.25,0,0,1,.79,2.08,15.61,15.61,0,0,1,.21,2.62v8H21.72v-7.43a16.33,16.33,0,0,0-.12-2.16,4.16,4.16,0,0,0-.46-1.5,2.13,2.13,0,0,0-.93-.89,3.46,3.46,0,0,0-1.52-.29,5.63,5.63,0,0,0-2.12.34,4.17,4.17,0,0,0-1.13.61,9.41,9.41,0,0,1,.33,1.56,14,14,0,0,1,.11,1.78v8H13.34v-7.43a14.71,14.71,0,0,0-.14-2.16,4.37,4.37,0,0,0-.48-1.5,2.13,2.13,0,0,0-.93-.89,3.39,3.39,0,0,0-1.49-.29l-.82,0-.83.07-.72.1-.44.08v12H5Z"/><path class="cls-1" d="M27.51,122.12a9.06,9.06,0,0,1,.55-3.29,6.86,6.86,0,0,1,1.45-2.33,5.88,5.88,0,0,1,2.08-1.39,6.47,6.47,0,0,1,2.4-.46,5.47,5.47,0,0,1,4.4,1.79q1.53,1.79,1.53,5.45v.42a3.88,3.88,0,0,1,0,.48H30.16a5.2,5.2,0,0,0,1.28,3.36,4.7,4.7,0,0,0,3.5,1.15,9.32,9.32,0,0,0,2.25-.23,8.15,8.15,0,0,0,1.38-.45l.36,2.13a7.51,7.51,0,0,1-1.63.52,11.55,11.55,0,0,1-2.64.27,8.36,8.36,0,0,1-3.21-.56,6,6,0,0,1-2.23-1.54,6.28,6.28,0,0,1-1.3-2.33A9.85,9.85,0,0,1,27.51,122.12Zm9.75-1.39a4.27,4.27,0,0,0-.86-2.83A3,3,0,0,0,34,116.79a3.35,3.35,0,0,0-1.54.34,3.65,3.65,0,0,0-1.13.89,4.06,4.06,0,0,0-.72,1.26,6.17,6.17,0,0,0-.34,1.45Z"/><path class="cls-1" d="M43.4,129.19V108.44l2.54-.44v7.26a8.9,8.9,0,0,1,3.11-.57,7.19,7.19,0,0,1,2.81.48,4.39,4.39,0,0,1,1.79,1.34,5.2,5.2,0,0,1,.94,2.06,12,12,0,0,1,.27,2.65v8H52.33v-7.43a12.18,12.18,0,0,0-.18-2.24,3.79,3.79,0,0,0-.59-1.5,2.32,2.32,0,0,0-1.09-.83,4.79,4.79,0,0,0-1.69-.26,6.87,6.87,0,0,0-.85.05l-.83.12c-.26,0-.5.1-.71.15l-.45.14v11.8Z"/><path class="cls-1" d="M64.08,114.69c.22,0,.47,0,.75,0l.83.11.75.14.51.12-.44,2.21a8.66,8.66,0,0,0-1-.26,8.77,8.77,0,0,0-1.79-.15,6.67,6.67,0,0,0-1.41.15l-.92.21v11.93H58.83v-13.6a17.27,17.27,0,0,1,2.24-.61A14.38,14.38,0,0,1,64.08,114.69Z"/><path class="cls-1" d="M79.94,114.64a7.37,7.37,0,0,1,2.58.4,4.17,4.17,0,0,1,1.69,1.12,4.24,4.24,0,0,1,.91,1.72,8.31,8.31,0,0,1,.27,2.2v8.88l-.91.15q-.59.1-1.32.18l-1.6.15q-.86.07-1.71.07a9.34,9.34,0,0,1-2.21-.25,4.94,4.94,0,0,1-1.75-.78,3.55,3.55,0,0,1-1.15-1.41,4.92,4.92,0,0,1-.41-2.1,4,4,0,0,1,.48-2,3.8,3.8,0,0,1,1.3-1.37,6,6,0,0,1,1.91-.76,10.41,10.41,0,0,1,2.29-.25q.38,0,.79,0t.78.11l.64.12.38.08v-.71a5.73,5.73,0,0,0-.14-1.24,2.86,2.86,0,0,0-.49-1.09,2.49,2.49,0,0,0-1-.76,3.8,3.8,0,0,0-1.6-.29,12,12,0,0,0-2.2.18,7.76,7.76,0,0,0-1.41.37l-.3-2.1a7.84,7.84,0,0,1,1.64-.42A14.13,14.13,0,0,1,79.94,114.64Zm.22,12.73q.9,0,1.6,0a7,7,0,0,0,1.16-.15v-4.23a3.29,3.29,0,0,0-.89-.23,9.92,9.92,0,0,0-1.49-.1,9.49,9.49,0,0,0-1.22.08,3.74,3.74,0,0,0-1.17.34,2.53,2.53,0,0,0-.89.71,1.87,1.87,0,0,0-.35,1.19,2,2,0,0,0,.87,1.9A4.55,4.55,0,0,0,80.16,127.36Z"/><path class="cls-1" d="M93.71,129.46a4.87,4.87,0,0,1-3.33-1,4,4,0,0,1-1-3v-17l2.54-.44v17.07a4.09,4.09,0,0,0,.11,1,1.42,1.42,0,0,0,.36.66,1.51,1.51,0,0,0,.66.37,6.76,6.76,0,0,0,1,.21Z"/><path class="cls-1" d="M100,127.36a5,5,0,0,0,2.31-.41,1.39,1.39,0,0,0,.75-1.31,1.74,1.74,0,0,0-.74-1.47,11.7,11.7,0,0,0-2.43-1.23q-.82-.33-1.57-.67a5.53,5.53,0,0,1-1.3-.81,3.52,3.52,0,0,1-.87-1.12,3.58,3.58,0,0,1-.33-1.61,3.62,3.62,0,0,1,1.39-3,5.94,5.94,0,0,1,3.8-1.11,10.69,10.69,0,0,1,1.2.07q.6.07,1.12.16t.91.21l.61.19-.46,2.18a6.39,6.39,0,0,0-1.28-.45,8.28,8.28,0,0,0-2.1-.23,3.88,3.88,0,0,0-1.86.42,1.4,1.4,0,0,0-.79,1.32,1.8,1.8,0,0,0,.18.82,1.89,1.89,0,0,0,.55.64,4.49,4.49,0,0,0,.91.53q.55.25,1.31.52,1,.38,1.8.75a5.67,5.67,0,0,1,1.35.86,3.31,3.31,0,0,1,.86,1.19,4.31,4.31,0,0,1,.3,1.71,3.39,3.39,0,0,1-1.46,3,7.28,7.28,0,0,1-4.16,1,10.92,10.92,0,0,1-2.95-.31q-1.07-.31-1.45-.48l.46-2.18,1.39.49A8,8,0,0,0,100,127.36Z"/><path class="cls-1" d="M119.46,127.31q4.15,0,4.15-2.84a2.84,2.84,0,0,0-.37-1.49,3.58,3.58,0,0,0-1-1.07,7,7,0,0,0-1.43-.78q-.81-.33-1.71-.66a17.23,17.23,0,0,1-2-.81,6.86,6.86,0,0,1-1.61-1.06,4.52,4.52,0,0,1-1.08-1.46,4.81,4.81,0,0,1-.4-2,4.74,4.74,0,0,1,1.69-3.88,7.14,7.14,0,0,1,4.67-1.39,12.36,12.36,0,0,1,3.13.37,7.15,7.15,0,0,1,2.06.81l-.85,2.16a7.53,7.53,0,0,0-1.71-.7,9.17,9.17,0,0,0-2.64-.34,5.82,5.82,0,0,0-1.42.16,3.62,3.62,0,0,0-1.15.49,2.43,2.43,0,0,0-.78.83,2.37,2.37,0,0,0-.29,1.19,2.52,2.52,0,0,0,.3,1.28,3,3,0,0,0,.85.91,7.26,7.26,0,0,0,1.27.72q.72.33,1.6.66,1.23.49,2.25,1a7.37,7.37,0,0,1,1.78,1.17,4.7,4.7,0,0,1,1.16,1.62,5.72,5.72,0,0,1,.41,2.28,4.46,4.46,0,0,1-1.82,3.82,8.5,8.5,0,0,1-5.12,1.34,13.19,13.19,0,0,1-2.06-.15,15.37,15.37,0,0,1-1.68-.36,9.72,9.72,0,0,1-1.27-.44q-.53-.23-.83-.4l.79-2.18a11.81,11.81,0,0,0,1.91.79A9.8,9.8,0,0,0,119.46,127.31Z"/><path class="cls-1" d="M141.77,122.12a10,10,0,0,1-.42,3,6.74,6.74,0,0,1-1.24,2.35,5.65,5.65,0,0,1-2,1.53,6.43,6.43,0,0,1-2.72.55,6.6,6.6,0,0,1-2.17-.33,6.87,6.87,0,0,1-1.41-.63v5.68h-2.54V115.43q.9-.22,2.25-.48a16.71,16.71,0,0,1,3.13-.26,8,8,0,0,1,2.95.52,6.32,6.32,0,0,1,2.24,1.48,6.53,6.53,0,0,1,1.43,2.33A9,9,0,0,1,141.77,122.12Zm-2.65,0a5.45,5.45,0,0,0-1.23-3.82,4.24,4.24,0,0,0-3.28-1.34,15.06,15.06,0,0,0-1.79.08,7.38,7.38,0,0,0-1,.19v9a5.21,5.21,0,0,0,1.34.74,5,5,0,0,0,1.91.35,4.08,4.08,0,0,0,1.87-.4,3.43,3.43,0,0,0,1.27-1.09,4.62,4.62,0,0,0,.71-1.64A9,9,0,0,0,139.12,122.12Z"/><path class="cls-1" d="M149.78,114.64a7.37,7.37,0,0,1,2.58.4,4.17,4.17,0,0,1,1.69,1.12,4.24,4.24,0,0,1,.91,1.72,8.31,8.31,0,0,1,.27,2.2v8.88l-.91.15q-.59.1-1.32.18l-1.6.15q-.86.07-1.71.07a9.34,9.34,0,0,1-2.21-.25,4.94,4.94,0,0,1-1.75-.78,3.55,3.55,0,0,1-1.15-1.41,4.92,4.92,0,0,1-.41-2.1,4,4,0,0,1,.48-2,3.8,3.8,0,0,1,1.3-1.37,6,6,0,0,1,1.91-.76,10.41,10.41,0,0,1,2.29-.25q.38,0,.79,0t.78.11l.64.12.38.08v-.71a5.73,5.73,0,0,0-.14-1.24,2.86,2.86,0,0,0-.49-1.09,2.49,2.49,0,0,0-1-.76,3.8,3.8,0,0,0-1.6-.29,12,12,0,0,0-2.2.18,7.76,7.76,0,0,0-1.41.37l-.3-2.1a7.84,7.84,0,0,1,1.64-.42A14.13,14.13,0,0,1,149.78,114.64Zm.22,12.73q.9,0,1.6,0a7,7,0,0,0,1.16-.15v-4.23a3.29,3.29,0,0,0-.89-.23,9.92,9.92,0,0,0-1.49-.1,9.49,9.49,0,0,0-1.22.08A3.74,3.74,0,0,0,148,123a2.53,2.53,0,0,0-.89.71,1.87,1.87,0,0,0-.35,1.19,2,2,0,0,0,.87,1.9A4.55,4.55,0,0,0,150,127.36Z"/><path class="cls-1" d="M159.28,115.4q.87-.22,2.32-.46a20.07,20.07,0,0,1,3.33-.25,7.19,7.19,0,0,1,2.81.48,4.39,4.39,0,0,1,1.79,1.34,5.2,5.2,0,0,1,.94,2.06,12,12,0,0,1,.27,2.65v8h-2.54v-7.43a12.18,12.18,0,0,0-.18-2.24,3.79,3.79,0,0,0-.59-1.5,2.32,2.32,0,0,0-1.09-.83,4.79,4.79,0,0,0-1.69-.26l-.85,0L163,117l-.71.1-.45.08v12h-2.54Z"/><path class="cls-1" d="M176,112.42a1.63,1.63,0,0,1-1.16-.45,1.78,1.78,0,0,1,0-2.43,1.72,1.72,0,0,1,2.32,0,1.78,1.78,0,0,1,0,2.43A1.63,1.63,0,0,1,176,112.42Zm1.28,16.77h-2.54V115h2.54Z"/><path class="cls-1" d="M184.84,127.36a5,5,0,0,0,2.31-.41,1.39,1.39,0,0,0,.75-1.31,1.74,1.74,0,0,0-.74-1.47,11.7,11.7,0,0,0-2.43-1.23q-.82-.33-1.57-.67a5.53,5.53,0,0,1-1.3-.81,3.52,3.52,0,0,1-.87-1.12,3.58,3.58,0,0,1-.33-1.61,3.62,3.62,0,0,1,1.39-3,5.94,5.94,0,0,1,3.8-1.11,10.69,10.69,0,0,1,1.2.07q.6.07,1.12.16t.91.21l.61.19-.46,2.18A6.39,6.39,0,0,0,188,117a8.28,8.28,0,0,0-2.1-.23,3.88,3.88,0,0,0-1.86.42,1.4,1.4,0,0,0-.79,1.32,1.8,1.8,0,0,0,.18.82,1.89,1.89,0,0,0,.55.64,4.49,4.49,0,0,0,.91.53q.55.25,1.31.52,1,.38,1.8.75a5.67,5.67,0,0,1,1.35.86,3.31,3.31,0,0,1,.86,1.19,4.31,4.31,0,0,1,.3,1.71,3.39,3.39,0,0,1-1.46,3,7.28,7.28,0,0,1-4.16,1,10.92,10.92,0,0,1-2.95-.31q-1.07-.31-1.45-.48l.46-2.18,1.39.49A8,8,0,0,0,184.84,127.36Z"/><path class="cls-1" d="M199.73,129.52a7.73,7.73,0,0,1-3-.55,6.07,6.07,0,0,1-2.18-1.53,6.33,6.33,0,0,1-1.32-2.33,9.7,9.7,0,0,1-.44-3,9,9,0,0,1,.48-3,7.07,7.07,0,0,1,1.35-2.36,6.06,6.06,0,0,1,2.14-1.56,6.93,6.93,0,0,1,2.83-.56,11.34,11.34,0,0,1,1.91.16,8.84,8.84,0,0,1,1.83.52l-.57,2.16a6.1,6.1,0,0,0-1.32-.44,7.52,7.52,0,0,0-1.6-.16,4,4,0,0,0-3.26,1.34,5.9,5.9,0,0,0-1.13,3.91,8,8,0,0,0,.26,2.1,4.33,4.33,0,0,0,.82,1.64,3.64,3.64,0,0,0,1.43,1.05,5.48,5.48,0,0,0,2.13.37,8.1,8.1,0,0,0,1.83-.19,6.7,6.7,0,0,0,1.28-.41l.35,2.13a2.66,2.66,0,0,1-.63.26,9.09,9.09,0,0,1-.93.22q-.52.1-1.11.16A9.89,9.89,0,0,1,199.73,129.52Z"/><path class="cls-1" d="M206.09,129.19V108.44l2.54-.44v7.26a8.9,8.9,0,0,1,3.11-.57,7.19,7.19,0,0,1,2.81.48,4.39,4.39,0,0,1,1.79,1.34,5.2,5.2,0,0,1,.94,2.06,12,12,0,0,1,.27,2.65v8H215v-7.43a12.18,12.18,0,0,0-.18-2.24,3.79,3.79,0,0,0-.59-1.5,2.32,2.32,0,0,0-1.09-.83,4.79,4.79,0,0,0-1.69-.26,6.87,6.87,0,0,0-.85.05l-.83.12c-.26,0-.5.1-.71.15l-.45.14v11.8Z"/></g></g></svg>