<?xml version="1.0" encoding="UTF-8"?>
<svg width="171px" height="171px" viewBox="0 0 171 171" version="1.1" xmlns="http://www.w3.org/2000/svg" xmlns:xlink="http://www.w3.org/1999/xlink">
    <!-- Generator: Sketch 55.2 (78181) - https://sketchapp.com -->
    <title>pay</title>
    <desc>Created with Sketch.</desc>
    <g id="Welcome" stroke="none" stroke-width="1" fill="none" fill-rule="evenodd">
        <g id="pay" fill="#FFFFFF" fill-rule="nonzero">
            <path d="M169.806905,61.4051566 L150.702525,11.683467 C147.082373,2.28405556 136.53546,-2.39783746 127.145557,1.22598051 C127.00925,1.27870613 126.873299,1.33285678 126.738059,1.38878869 L31.2674072,41.0042585 C22.1768114,44.7370902 17.7089205,55.0374686 21.1913415,64.2348839 L23.8164143,71.2488171 L17.7946909,71.2488171 C7.97166561,71.259861 0.0110327083,79.2285555 0,89.0615283 L0,153.187289 C0.0110327083,163.020262 7.97166561,170.988956 17.7946909,171 L138.798589,171 C148.621614,170.988956 156.582247,163.020262 156.59328,153.187289 L156.59328,89.0615283 C156.587585,88.0946544 156.501815,87.1299179 156.337036,86.1772941 L159.642578,84.8377783 C168.814317,81.0746649 173.322069,70.6827292 169.806905,61.4051566 Z M17.7946909,76.949241 L138.798589,76.949241 C145.189018,76.9674099 150.460517,81.9631629 150.8278,88.3493761 L5.76547984,88.3493761 C6.13276226,81.9628067 11.4042615,76.9670537 17.7946909,76.949241 Z M46.4114009,59.7806374 L65.4417551,50.2529744 L69.35374,60.0485405 L50.3233858,69.5733535 L46.4114009,59.7806374 Z M150.898979,153.187645 C150.891149,159.874181 145.47836,165.292451 138.798589,165.300289 L17.7946909,165.300289 C11.1149198,165.292451 5.70213074,159.874181 5.69430108,153.187645 L5.69430108,116.849714 L150.898979,116.849714 L150.898979,153.187645 Z M150.898979,111.149647 L5.69430108,111.149647 L5.69430108,94.0494437 L150.898979,94.0494437 L150.898979,111.149647 Z M157.507215,79.5712721 L154.531943,80.7768364 C151.4588,74.925717 145.402554,71.258436 138.798589,71.2491734 L59.7104411,71.2491734 L74.2451446,63.9730371 C75.5704932,63.3107605 76.1673271,61.7418169 75.6174712,60.3648943 L69.5786649,45.2597152 C68.9946431,43.7983603 67.3379574,43.0872769 65.8780809,43.6715338 C65.8044109,43.7011029 65.7321645,43.7335221 65.6613416,43.7691475 L41.5203522,55.8589909 C40.1960713,56.5223362 39.6006609,58.0909236 40.1508728,59.4671337 L44.8600598,71.2491734 L29.8950807,71.2491734 L26.5240544,62.2487666 C24.1342274,55.9295292 27.2038116,48.8543203 33.4483245,46.2885774 L128.916129,6.6731076 C135.298373,4.02400119 142.617685,7.05536839 145.264468,13.4440754 C145.305751,13.5434703 145.345611,13.6435778 145.384048,13.7440415 L164.488428,63.4657311 C166.905303,69.8409004 163.809383,76.9830851 157.507215,79.5712721 Z" id="Shape"></path>
            <path d="M102.448901,156.697 C107.71998,159.763904 114.228921,159.763904 119.5,156.697 C127.60462,161.412618 137.991912,158.655201 142.700455,150.538404 C147.408998,142.421607 144.655718,132.018708 136.551099,127.303091 C133.949856,125.789646 130.993979,124.995742 127.985772,125.002824 C125.00373,125.00424 122.075432,125.79779 119.5,127.303091 C111.39538,122.587473 101.008088,125.344535 96.2995449,133.461332 C91.591002,141.578483 94.3442815,151.981028 102.448901,156.697 Z M124.229404,131.360073 C125.432616,130.916025 126.70336,130.682316 127.985772,130.66886 C134.234483,130.66886 139.300135,135.742123 139.300135,142.000222 C139.300135,148.258322 134.234483,153.331585 127.985772,153.331585 C126.70336,153.318129 125.432616,153.08442 124.229404,152.640372 C129.237424,146.433264 129.237424,137.566827 124.229404,131.360073 Z M119.5,134.583845 C123.271572,138.806903 123.271572,145.193542 119.5,149.416599 C115.728428,145.193542 115.728428,138.806549 119.5,134.583845 Z M111.014228,130.66886 C112.29664,130.681961 113.567384,130.916025 114.770596,131.360073 C109.762576,137.566827 109.762576,146.433618 114.770596,152.640372 C113.567384,153.08442 112.29664,153.318129 111.014228,153.331585 C104.765517,153.331585 99.6998646,148.258322 99.6998646,142.000222 C99.6998646,135.741769 104.765517,130.66886 111.014228,130.66886 Z" id="Shape"></path>
            <polygon id="Rectangle" transform="translate(134.691276, 55.349782) rotate(-113.965979) translate(-134.691276, -55.349782) " points="131.84716 40.5034973 137.535392 40.5034973 137.535392 70.1960675 131.84716 70.1960675"></polygon>
            <polygon id="Rectangle" transform="translate(122.643442, 46.304890) rotate(-24.776341) translate(-122.643442, -46.304890) " points="101.061428 43.4620827 144.225456 43.4620827 144.225456 49.1476977 101.061428 49.1476977"></polygon>
        </g>
    </g>
</svg>