<?xml version="1.0" encoding="UTF-8"?>
<svg width="838px" height="475px" viewBox="0 0 838 475" version="1.1" xmlns="http://www.w3.org/2000/svg" xmlns:xlink="http://www.w3.org/1999/xlink">
    <!-- Generator: Sketch 55.2 (78181) - https://sketchapp.com -->
    <title>textura-elebe-color-diagonal</title>
    <desc>Created with Sketch.</desc>
    <defs>
        <polygon id="path-1" points="0.11362 0.392307692 18.9031 0.392307692 18.9031 19.409 0.11362 19.409"></polygon>
        <polygon id="path-3" points="0 0.34439208 35.6303755 0.34439208 35.6303755 39.6950671 0 39.6950671"></polygon>
        <polygon id="path-5" points="0.630780952 0.440409092 47.6029714 0.440409092 47.6029714 21 0.630780952 21"></polygon>
    </defs>
    <g id="Welcome" stroke="none" stroke-width="1" fill="none" fill-rule="evenodd">
        <g id="Desktop-HD" transform="translate(-423.000000, -130.000000)">
            <g id="textura-elebe-color-diagonal" transform="translate(423.000000, 130.000000)">
                <g id="Group-3" transform="translate(137.000000, 0.000000)">
                    <mask id="mask-2" fill="white">
                        <use xlink:href="#path-1"></use>
                    </mask>
                    <g id="Clip-2"></g>
                    <path d="M18.9031,9.90053846 C18.9031,15.1520769 14.6965,19.409 9.50874,19.409 C4.32022,19.409 0.11362,15.1520769 0.11362,9.90053846 C0.11362,4.64976923 4.32022,0.392076923 9.50874,0.392076923 C14.6965,0.392076923 18.9031,4.64976923 18.9031,9.90053846" id="Fill-1" fill="#F8BA0B" mask="url(#mask-2)"></path>
                </g>
                <path d="M541,30.5 C541,37.9564637 534.955893,44 527.499632,44 C520.044107,44 514,37.9564637 514,30.5 C514,23.0435363 520.044107,17 527.499632,17 C534.955893,17 541,23.0435363 541,30.5" id="Fill-4" fill="#102F46"></path>
                <path d="M149,185.5 C149,190.747242 144.746639,195 139.499612,195 C134.253361,195 130,190.747242 130,185.5 C130,180.252758 134.253361,176 139.499612,176 C144.746639,176 149,180.252758 149,185.5" id="Fill-6" fill="#F0D9DD"></path>
                <path d="M324,336.499612 C324,341.746639 319.746639,346 314.500388,346 C309.253361,346 305,341.746639 305,336.499612 C305,331.253361 309.253361,327 314.500388,327 C319.746639,327 324,331.253361 324,336.499612" id="Fill-8" fill="#96C3D6"></path>
                <path d="M344,211.500368 C344,213.985536 341.9857,216 339.5,216 C337.015035,216 335,213.985536 335,211.500368 C335,209.014464 337.015035,207 339.5,207 C341.9857,207 344,209.014464 344,211.500368" id="Fill-10" fill="#EA5759"></path>
                <path d="M580,196.000374 C580,202.074996 575.075577,207 569,207 C562.925172,207 558,202.074996 558,196.000374 C558,189.925753 562.925172,185 569,185 C575.075577,185 580,189.925753 580,196.000374" id="Fill-12" fill="#EA5759"></path>
                <path d="M248.778129,242 C247.64526,246.191812 243.70053,254.603058 230.118143,255.801999 C222.236205,256.500759 205.689252,258.008766 206.00444,273 C206.00444,273 208.023443,260.975509 227.025697,259.457797 C252.755957,257.406309 248.778129,242 248.778129,242" id="Fill-14" fill="#EA5759"></path>
                <g id="Group-18" transform="translate(0.000000, 75.000000)">
                    <mask id="mask-4" fill="white">
                        <use xlink:href="#path-3"></use>
                    </mask>
                    <g id="Clip-17"></g>
                    <path d="M-7.34693878e-05,0.954943396 C4.23323265,1.53683019 12.9386204,4.36777358 15.8156816,17.7262642 C17.4878449,25.4772075 21.0393551,41.7451321 35.6303755,39.4809811 C35.6303755,39.4809811 23.6401714,39.0356981 19.7720082,20.3270189 C14.5365796,-5.00656604 -7.34693878e-05,0.954943396 -7.34693878e-05,0.954943396" id="Fill-16" fill="#F8BA0B" mask="url(#mask-4)"></path>
                </g>
                <path d="M742,127.635747 C738.41842,129.00599 730.380619,130.544724 722.605437,121.32232 C718.091862,115.971371 708.584753,104.760153 698,112.830045 C698,112.830045 707.647474,108.003805 718.41108,120.991492 C732.981905,138.579225 742,127.635747 742,127.635747" id="Fill-19" fill="#75BD80"></path>
                <path d="M364.988613,14 C363.421292,17.5099107 358.849571,24.3106921 347.067287,23.4051758 C340.229685,22.8820388 325.869241,21.8199577 324,35 C324,35 327.441741,24.7547941 343.902306,26.1623714 C366.190373,28.071257 364.988613,14 364.988613,14" id="Fill-21" fill="#5175B8"></path>
                <g id="Group-25" transform="translate(790.000000, 454.000000)">
                    <mask id="mask-6" fill="white">
                        <use xlink:href="#path-5"></use>
                    </mask>
                    <g id="Clip-24"></g>
                    <path d="M47.6029714,17.321475 C43.8589714,18.831975 35.4094476,20.651475 26.9043048,11.478225 C21.9679238,6.156225 11.5709714,-4.993275 0.630780952,3.572475 C0.630780952,3.572475 10.6810667,-1.652775 22.4601143,11.271225 C38.4075429,28.770975 47.6029714,17.321475 47.6029714,17.321475" id="Fill-23" fill="#D9D9D9" mask="url(#mask-6)"></path>
                </g>
                <path d="M278,403 C281.436216,405.64619 287.726655,412.532733 283.927056,425.789929 C281.724316,433.483302 277.138593,449.652881 291,455 C291,455 280.700039,448.56861 286.163818,430.081271 C293.563951,405.050816 278,403 278,403" id="Fill-26" fill="#D8314C"></path>
            </g>
        </g>
    </g>
</svg>